<svg width="51" height="39" viewBox="0 0 51 39" fill="none" xmlns="http://www.w3.org/2000/svg">
<path d="M50.0002 28.1797C49.815 29.0187 49.3712 29.7768 48.733 30.345C48.3745 30.6441 47.9596 30.8661 47.5133 30.9974C47.067 31.1288 46.5989 31.1666 46.1377 31.1087C45.6764 31.0508 45.2317 30.8983 44.8307 30.6606C44.4298 30.4229 44.0811 30.105 43.8059 29.7263C43.536 29.3533 43.3434 28.9291 43.2396 28.479C43.1358 28.029 43.1228 27.5624 43.2016 27.1071C43.2805 26.6519 43.4497 26.2175 43.6986 25.8299C43.9476 25.4423 44.2713 25.1095 44.6505 24.8513C44.7818 24.7782 44.889 24.6676 44.9586 24.5334C45.0283 24.3993 45.0574 24.2473 45.0423 24.0966C45.0423 21.1332 45.0423 18.1699 45.0423 15.2065V14.6745L44.5098 14.9405C37.8545 18.5493 31.2055 22.1602 24.5625 25.7731C24.4111 25.872 24.2346 25.9245 24.0544 25.9245C23.8742 25.9245 23.6978 25.872 23.5464 25.7731C15.871 21.591 8.19148 17.4172 0.507959 13.2516C0.354941 13.1711 0.208008 13.0783 0.012146 12.9608C0.208008 12.8494 0.336699 12.7628 0.477475 12.6886C8.16915 8.50648 15.8647 4.32645 23.5646 0.148466C23.7095 0.0534066 23.8787 0.00280762 24.0514 0.00280762C24.2242 0.00280762 24.3931 0.0534066 24.538 0.148466C32.246 4.34295 39.9579 8.52711 47.6741 12.701C47.8259 12.7662 47.9529 12.8789 48.0366 13.0226C48.1204 13.1662 48.1565 13.3332 48.1394 13.499C48.1394 17.0192 48.1394 20.5455 48.1394 24.0657C48.1192 24.2171 48.1452 24.3712 48.2142 24.5072C48.2831 24.6433 48.3915 24.7547 48.525 24.8266C49.2943 25.3623 49.8327 26.1742 50.0306 27.0971L50.0002 28.1797Z" fill="white"/>
<path d="M9.45648 21.6467C9.69519 21.7705 9.87269 21.8509 10.0686 21.9437C14.5979 24.4183 19.1251 26.8764 23.6503 29.3181C23.7747 29.4013 23.9205 29.4457 24.0697 29.4457C24.2188 29.4457 24.3646 29.4013 24.489 29.3181C29.0305 26.8434 33.5719 24.3688 38.1135 21.8942L38.6278 21.6282C38.6278 21.8385 38.6583 21.9994 38.6583 22.1602C38.6583 24.9875 38.6583 27.8209 38.6583 30.6482C38.6759 30.7989 38.6448 30.9514 38.5699 31.0829C38.4949 31.2144 38.3799 31.318 38.242 31.3782C33.6433 33.8528 29.0569 36.3398 24.4827 38.8392C24.3634 38.9177 24.2243 38.9595 24.0819 38.9595C23.9396 38.9595 23.8004 38.9177 23.6811 38.8392C19.0906 36.3274 14.4999 33.8404 9.89103 31.3287C9.79209 31.2779 9.70565 31.2055 9.63789 31.1166C9.57013 31.0278 9.52266 30.9248 9.49922 30.8152C9.45637 27.8209 9.45648 24.7771 9.45648 21.6467Z" fill="white"/>
</svg>
