<svg width="25" height="24" viewBox="0 0 25 24" fill="none" xmlns="http://www.w3.org/2000/svg">
<path d="M0 11.7835C0.0690334 11.6698 0.169665 11.5786 0.289644 11.5211C0.409622 11.4636 0.543724 11.4424 0.675605 11.4599C1.22604 11.474 1.77647 11.4599 2.32926 11.4599H2.58205C2.54661 11.0417 2.50412 10.652 2.48758 10.2622C2.41725 8.71751 2.71777 7.17844 3.36401 5.77369C3.3862 5.71237 3.42084 5.65624 3.46575 5.60897C3.51066 5.5617 3.56483 5.52422 3.62493 5.49892C3.68502 5.47362 3.74971 5.46109 3.81491 5.46201C3.88011 5.46293 3.94438 5.47736 4.00374 5.50434C4.0631 5.53133 4.11625 5.57025 4.15981 5.61877C4.20337 5.66729 4.23648 5.72435 4.25693 5.78626C4.27739 5.84817 4.28482 5.91363 4.27873 5.97855C4.27265 6.04347 4.25312 6.10642 4.22152 6.16345C3.67227 7.35592 3.3978 8.65647 3.41834 9.96919C3.41834 10.4157 3.49635 10.8622 3.52942 11.3063C3.52942 11.441 3.59789 11.4859 3.72309 11.474C4.36093 11.415 4.56176 11.6323 4.51924 12.3079C4.51924 12.393 4.51924 12.478 4.51924 12.5748H5.56811V12.3151C5.56811 10.8976 5.56811 9.47464 5.56811 8.04619C5.56811 7.60679 5.7264 7.44857 6.16343 7.44857H9.76835V7.1745C9.76835 6.41854 9.76835 5.66498 9.76835 4.90902C9.75706 4.83404 9.7634 4.75749 9.78681 4.68536C9.81021 4.61323 9.85004 4.54749 9.90319 4.49342C9.95635 4.43934 10.0213 4.39831 10.0931 4.37368C10.1648 4.34905 10.2413 4.34153 10.3165 4.35154C11.6756 4.35154 13.0356 4.35859 14.3963 4.37276C14.7507 4.37276 14.9112 4.55232 14.9112 4.92794C14.9112 6.4682 14.9112 8.00921 14.9112 9.55105V9.85811C15.0152 9.85811 15.1049 9.8723 15.1971 9.8723C16.2649 9.8723 17.3233 9.8723 18.4029 9.8723C18.9911 9.8723 19.1116 9.99514 19.1116 10.581V15.542C19.1598 15.5049 19.2048 15.4638 19.2462 15.4191C20.0046 14.4812 20.5609 13.3968 20.8805 12.2337C21.2 11.0707 21.2757 9.85414 21.103 8.66043C21.0794 8.45727 21.0369 8.25882 21.0015 8.05565C20.9823 7.99312 20.9763 7.92739 20.9839 7.86244C20.9916 7.7975 21.0126 7.73475 21.0457 7.67834C21.0787 7.62194 21.1233 7.57308 21.1762 7.53473C21.2292 7.49639 21.2895 7.46942 21.3534 7.4556C21.419 7.44087 21.487 7.44035 21.5528 7.45399C21.6187 7.46763 21.6808 7.49516 21.7351 7.53473C21.7894 7.57431 21.8347 7.62507 21.8679 7.68353C21.901 7.742 21.9214 7.8068 21.9275 7.87375C22.5417 11.2472 21.7244 14.2096 19.3478 16.709C19.2645 16.7827 19.1996 16.875 19.1585 16.9784C19.1175 17.0819 19.1015 17.1935 19.1116 17.3043C19.1305 17.5145 19.1116 17.7295 19.1116 17.9776L20.2928 17.7107C20.7652 17.6067 21.2258 17.491 21.6936 17.3965C22.2138 17.2842 22.7573 17.3789 23.2089 17.6604C23.6606 17.9419 23.9849 18.3882 24.1133 18.9047C24.2416 19.4211 24.1638 19.9672 23.8965 20.4274C23.6292 20.8876 23.1933 21.2256 22.6811 21.3699C21.9275 21.5873 21.1621 21.7645 20.4014 21.9582C19.2202 22.2606 18.039 22.5724 16.8413 22.8583C15.6929 23.1315 14.4877 23.0356 13.397 22.5842C11.0914 21.6739 8.78331 20.7676 6.47292 19.8652C6.40999 19.8334 6.34205 19.8125 6.27209 19.8037C5.7004 19.8037 5.12867 19.8037 4.52154 19.8037C4.52154 19.9431 4.52154 20.0659 4.52154 20.1864C4.53042 20.2579 4.52289 20.3306 4.4994 20.3987C4.47591 20.4668 4.43708 20.5286 4.38601 20.5794C4.33494 20.6303 4.2729 20.6688 4.20468 20.692C4.13645 20.7152 4.0639 20.7224 3.99243 20.7132C2.83724 20.7132 1.67964 20.7132 0.524438 20.7132C0.414822 20.7128 0.30763 20.681 0.215531 20.6215C0.123433 20.5621 0.0502895 20.4775 0.00472935 20.3778L0 11.7835ZM4.5287 18.8423C5.0744 18.8423 5.59885 18.8304 6.12329 18.8423C6.35638 18.8465 6.58705 18.8896 6.80593 18.9698C9.13838 19.877 11.4685 20.7896 13.7963 21.7078C14.666 22.0739 15.629 22.1565 16.5484 21.944C18.4832 21.4715 20.4132 20.9755 22.3432 20.477C22.4879 20.4462 22.6247 20.3863 22.7453 20.3007C22.866 20.2152 22.9679 20.1059 23.0449 19.9796C23.1219 19.8533 23.1723 19.7127 23.193 19.5663C23.2137 19.4199 23.2042 19.2708 23.1653 19.1281C23.1308 18.9843 23.0676 18.8491 22.9796 18.7303C22.8916 18.6114 22.7806 18.5115 22.6532 18.4366C22.5257 18.3616 22.3845 18.3131 22.2379 18.2939C22.0913 18.2747 21.9424 18.2853 21.7999 18.3249C20.3612 18.6509 18.9202 18.9627 17.4886 19.317C16.1888 19.6665 14.8102 19.5794 13.5647 19.069C12.856 18.7761 12.1307 18.5162 11.4125 18.2422C10.6944 17.9682 9.94787 17.68 9.2179 17.3942C9.15777 17.3745 9.10228 17.3429 9.05457 17.3014C9.00685 17.2599 8.9679 17.2092 8.94014 17.1524C8.91238 17.0955 8.89637 17.0336 8.89296 16.9705C8.88955 16.9073 8.89882 16.8441 8.9203 16.7846C8.94202 16.7253 8.97546 16.6709 9.01858 16.6247C9.0617 16.5784 9.11359 16.5413 9.1713 16.5155C9.22901 16.4898 9.2914 16.4758 9.35459 16.4746C9.41778 16.4733 9.48057 16.4848 9.53927 16.5083C9.59832 16.5272 9.65732 16.5555 9.71402 16.5768L12.6599 17.7059C12.8232 17.775 13 17.8063 13.1771 17.7978C13.3541 17.7892 13.527 17.7408 13.6829 17.6563C13.8967 17.5509 14.0737 17.3833 14.1905 17.1754C14.3073 16.9676 14.3585 16.7291 14.3372 16.4917C14.3309 16.2657 14.2564 16.047 14.1236 15.864C13.9908 15.6811 13.8059 15.5425 13.593 15.4664C12.1 14.8459 10.6038 14.2286 9.10451 13.6144C8.97536 13.5616 8.83773 13.5327 8.69825 13.5292C7.38477 13.5292 6.07368 13.5292 4.7602 13.5292C4.68461 13.5292 4.60901 13.5293 4.52397 13.5411L4.5287 18.8423ZM10.7204 5.30583C10.7204 5.35307 10.7086 5.38389 10.7086 5.4146C10.7086 7.96753 10.7086 10.522 10.7086 13.0781C10.7086 13.2317 10.7819 13.2789 10.8976 13.3261C11.6063 13.6143 12.315 13.9049 13.0096 14.1955L13.9545 14.5876V5.30583H10.7204ZM14.9254 10.8244C14.918 10.8658 14.9132 10.9076 14.9112 10.9496C14.9112 12.367 14.9112 13.7907 14.9112 15.2207C14.919 15.312 14.9481 15.4002 14.9962 15.4782C15.1765 15.7761 15.2782 16.1148 15.2919 16.4627C15.3055 16.8106 15.2306 17.1563 15.0742 17.4674C14.9513 17.7277 14.8922 18.0135 14.9018 18.3013C14.9018 18.4619 14.9561 18.5092 15.1121 18.5375C16.1609 18.7147 17.1508 18.4217 18.1477 18.1807V10.8244H14.9254ZM0.959135 12.419V19.7423H3.55768V12.419H0.959135ZM6.52956 8.39109V12.582C7.13668 12.582 7.72729 12.582 8.31552 12.582C8.78453 12.5327 9.25803 12.6145 9.68334 12.8182C9.69987 12.8182 9.72817 12.8182 9.74943 12.8182V8.38878L6.52956 8.39109Z" fill="url(#paint0_linear_301_568)"/>
<path d="M12.3481 -6.10352e-05C13.4984 0.034176 14.6359 0.25277 15.7169 0.647283C16.0382 0.767763 16.1728 1.00871 16.0736 1.28275C15.9744 1.55678 15.7122 1.64178 15.3862 1.53075C12.0789 0.420436 9.08658 0.981132 6.40923 3.21278C6.33576 3.29589 6.23702 3.35275 6.12824 3.3745C6.01946 3.39626 5.90655 3.38178 5.80676 3.33332C5.72368 3.29667 5.65533 3.23322 5.61251 3.15314C5.56969 3.07307 5.55488 2.98097 5.57052 2.89153C5.59341 2.762 5.65521 2.64247 5.7477 2.54894C7.1172 1.30708 8.81597 0.486804 10.6402 0.186575C11.2142 0.0920805 11.7788 0.0613605 12.3481 -6.10352e-05Z" fill="url(#paint1_linear_301_568)"/>
<path d="M21.4079 1.98439C21.3653 2.09034 21.3106 2.19102 21.2449 2.28442C19.985 3.74593 18.718 5.20662 17.4439 6.66656C17.4061 6.72278 17.3567 6.77021 17.299 6.80567C17.2413 6.84113 17.1767 6.86382 17.1095 6.87211C17.0423 6.8804 16.9741 6.87415 16.9095 6.85377C16.8449 6.8334 16.7855 6.79936 16.7352 6.75399C16.6849 6.70966 16.6446 6.6551 16.6171 6.594C16.5895 6.53291 16.5752 6.46667 16.5752 6.39964C16.5752 6.33261 16.5895 6.26626 16.6171 6.20516C16.6446 6.14406 16.6849 6.08962 16.7352 6.04528C17.9951 4.58219 19.2629 3.12139 20.5386 1.66303C20.5992 1.57979 20.6851 1.51858 20.7836 1.48873C20.8821 1.45888 20.9877 1.46209 21.0842 1.49773C21.1817 1.53564 21.2652 1.60268 21.3231 1.68979C21.381 1.77689 21.4106 1.87982 21.4079 1.98439Z" fill="url(#paint2_linear_301_568)"/>
<path d="M20.243 4.74602C20.5522 4.7522 20.8465 4.87929 21.0629 5.10014C21.2794 5.32099 21.4006 5.61798 21.4006 5.9272C21.3965 6.24047 21.2681 6.53932 21.0437 6.75795C20.8193 6.97659 20.5173 7.09712 20.204 7.09304C19.8908 7.08897 19.5919 6.96054 19.3733 6.73615C19.1546 6.51176 19.0341 6.20967 19.0382 5.8964C19.0462 5.58435 19.1775 5.28826 19.4033 5.07269C19.629 4.85711 19.9309 4.73967 20.243 4.74602ZM20.4793 5.9768V5.87518C20.3895 5.81376 20.3044 5.71696 20.2052 5.70042C20.1745 5.69237 20.1422 5.69246 20.1115 5.70077C20.0809 5.70907 20.0529 5.72526 20.0304 5.74772C20.008 5.77017 19.9918 5.79815 19.9835 5.82881C19.9752 5.85946 19.9751 5.89175 19.9831 5.92247C19.998 5.97739 20.0262 6.02772 20.0654 6.06897C20.1046 6.11021 20.1534 6.14106 20.2075 6.15871C20.302 6.15871 20.3988 6.03822 20.4886 5.9768H20.4793Z" fill="url(#paint3_linear_301_568)"/>
<path d="M18.7735 2.49706C18.776 2.81033 18.654 3.11179 18.4343 3.33508C18.2146 3.55837 17.9151 3.6852 17.6018 3.68771C17.2885 3.69021 16.9871 3.56809 16.7638 3.34835C16.5405 3.1286 16.4137 2.82925 16.4112 2.51598C16.4099 2.36087 16.4392 2.20702 16.4975 2.06323C16.5557 1.91945 16.6416 1.78853 16.7504 1.67796C16.8592 1.5674 16.9888 1.4794 17.1316 1.41889C17.2745 1.35838 17.4278 1.32658 17.5829 1.32534C17.738 1.3241 17.8919 1.35341 18.0356 1.41162C18.1794 1.46984 18.3104 1.55578 18.4209 1.66458C18.5315 1.77339 18.6195 1.90287 18.68 2.0457C18.7405 2.18853 18.7723 2.34195 18.7735 2.49706ZM17.8664 2.56085V2.44977C17.7767 2.38835 17.6774 2.27024 17.5971 2.28205C17.5168 2.29386 17.4364 2.4262 17.3608 2.50652C17.4388 2.58448 17.512 2.71203 17.5971 2.72384C17.6821 2.73565 17.779 2.61991 17.8687 2.56085H17.8664Z" fill="url(#paint4_linear_301_568)"/>
<path d="M4.32529 4.29954C4.32492 4.23815 4.33699 4.17733 4.36082 4.12075C4.38464 4.06417 4.41977 4.01308 4.46394 3.97045C4.50811 3.92782 4.56043 3.89454 4.61782 3.87275C4.67521 3.85095 4.73643 3.841 4.79776 3.84356C4.86123 3.84352 4.92413 3.85628 4.98255 3.88105C5.04098 3.90582 5.09383 3.94211 5.13793 3.98775C5.18203 4.03339 5.21646 4.08746 5.23921 4.1467C5.26195 4.20595 5.27246 4.26922 5.27024 4.33265C5.26417 4.45382 5.21181 4.56803 5.12386 4.65159C5.0359 4.73515 4.91908 4.78163 4.79776 4.78147C4.73491 4.78149 4.67277 4.76889 4.61482 4.74456C4.55687 4.72023 4.50436 4.68459 4.46036 4.63971C4.41637 4.59483 4.38169 4.54171 4.35851 4.48329C4.33533 4.42488 4.32403 4.36238 4.32529 4.29954Z" fill="url(#paint5_linear_301_568)"/>
<defs>
<linearGradient id="paint0_linear_301_568" x1="12.0869" y1="4.34724" x2="12.0869" y2="23.0107" gradientUnits="userSpaceOnUse">
<stop stop-color="#FF675A"/>
<stop offset="1" stop-color="#FF895B"/>
</linearGradient>
<linearGradient id="paint1_linear_301_568" x1="10.835" y1="-6.10352e-05" x2="10.835" y2="3.38436" gradientUnits="userSpaceOnUse">
<stop stop-color="#FF675A"/>
<stop offset="1" stop-color="#FF895B"/>
</linearGradient>
<linearGradient id="paint2_linear_301_568" x1="18.9916" y1="1.46846" x2="18.9916" y2="6.87567" gradientUnits="userSpaceOnUse">
<stop stop-color="#FF675A"/>
<stop offset="1" stop-color="#FF895B"/>
</linearGradient>
<linearGradient id="paint3_linear_301_568" x1="20.2193" y1="4.74577" x2="20.2193" y2="7.09314" gradientUnits="userSpaceOnUse">
<stop stop-color="#FF675A"/>
<stop offset="1" stop-color="#FF895B"/>
</linearGradient>
<linearGradient id="paint4_linear_301_568" x1="17.5924" y1="1.3253" x2="17.5924" y2="3.68774" gradientUnits="userSpaceOnUse">
<stop stop-color="#FF675A"/>
<stop offset="1" stop-color="#FF895B"/>
</linearGradient>
<linearGradient id="paint5_linear_301_568" x1="4.79786" y1="3.84317" x2="4.79786" y2="4.78147" gradientUnits="userSpaceOnUse">
<stop stop-color="#FF675A"/>
<stop offset="1" stop-color="#FF895B"/>
</linearGradient>
</defs>
</svg>
