<svg width="50" height="39" viewBox="0 0 50 39" fill="none" xmlns="http://www.w3.org/2000/svg">
<g clip-path="url(#clip0_109_535)">
<path d="M12.2938 27.426C11.7882 27.3567 11.4115 26.9248 11.4115 26.4145V15.0861C11.4115 12.9683 12.9612 11.2722 15.0256 10.7996C19.4475 9.83486 23.4556 7.50852 26.4868 4.14768C27.4188 3.13033 28.3295 2.08451 29.3326 1.09561C29.7906 0.566149 30.4108 0.203015 31.0966 0.0627558C31.7825 -0.0775039 32.4956 0.0129876 33.1246 0.320139C33.7869 0.571008 34.3531 1.02444 34.7427 1.61587C35.1323 2.20729 35.3253 2.90656 35.2944 3.6141C35.2944 14.0865 35.2944 24.5613 35.2944 35.0384C35.319 35.7529 35.1207 36.4574 34.7268 37.054C34.3328 37.6507 33.7629 38.1099 33.0961 38.3679C32.4564 38.6529 31.7425 38.7265 31.0581 38.5781C30.3736 38.4297 29.7542 38.067 29.2899 37.5427C28.3935 36.6107 27.5471 35.6289 26.672 34.6969C22.9833 30.5266 17.839 27.9252 12.2938 27.426Z" fill="url(#paint0_linear_109_535)"/>
<path d="M9.12793 27.3051C7.39201 27.1984 5.67748 27.5327 4.01271 26.9991C2.93021 26.6583 1.97705 25.9957 1.28055 25.0996C0.58405 24.2036 0.177294 23.1166 0.114037 21.9835C0.0286643 20.2998 0.0165985 18.6136 0.0782566 16.9252C0.0938913 15.4859 0.664178 14.1081 1.66996 13.0784C2.67575 12.0488 4.03981 11.4466 5.47832 11.3973C6.67354 11.319 7.88291 11.3973 9.12793 11.3973V27.3051Z" fill="#002159"/>
<path d="M3.44788 33.9305C3.44198 31.549 5.72048 29.5845 8.1017 29.5502C8.75588 29.5408 9.40769 29.538 10.0577 29.579C10.147 29.5846 10.2306 29.6376 10.2483 29.7253C10.2509 29.7386 10.2519 29.7522 10.2519 29.7657C10.2522 31.6229 10.2944 33.4801 10.2519 35.3373C10.2379 35.9435 10.0611 36.5348 9.74055 37.0495C9.41995 37.5642 8.96711 37.9834 8.42918 38.2632C7.89126 38.5431 7.28802 38.6734 6.68254 38.6405C6.07706 38.6076 5.49177 38.4128 4.98731 38.0763C4.58348 37.831 4.24128 37.4962 3.9872 37.0978C3.73311 36.6994 3.57387 36.248 3.5217 35.7784C3.4839 35.5142 3.46008 35.2482 3.45049 34.9816L3.44788 33.9305Z" fill="url(#paint1_linear_109_535)"/>
<path d="M45.4968 20.4752C44.394 20.4752 43.2983 20.4752 42.1956 20.4752C42.0225 20.496 41.847 20.4752 41.6835 20.4146C41.5201 20.3539 41.3735 20.2551 41.2559 20.1264C41.1383 19.9977 41.0532 19.8428 41.0075 19.6745C40.9619 19.5063 40.957 19.3296 40.9933 19.1591C41.0716 18.533 41.484 18.1986 42.2453 18.1986C43.8389 18.1986 45.4327 18.1986 47.0263 18.1986C47.6097 18.1986 48.1932 18.1986 48.7837 18.1986C49.5734 18.1986 50.0145 18.6468 50.0002 19.3583C50.0065 19.5147 49.9785 19.6706 49.9186 19.8152C49.8587 19.9599 49.7682 20.0898 49.6532 20.196C49.5382 20.3022 49.4016 20.3822 49.2527 20.4304C49.1037 20.4786 48.9461 20.4939 48.7906 20.4752C47.6879 20.4894 46.5924 20.4752 45.4968 20.4752Z" fill="#002159"/>
<path d="M39.8122 28.5785C39.7842 28.3398 39.8325 28.0984 39.9501 27.8888C40.0677 27.6792 40.2484 27.5122 40.4667 27.4117C40.6824 27.3032 40.9283 27.2694 41.1653 27.3158C41.4022 27.3622 41.6171 27.486 41.776 27.6678L45.1195 31.0116L45.2265 31.1254C45.4089 31.3355 45.502 31.6085 45.486 31.8863C45.4701 32.164 45.3463 32.4245 45.1411 32.6124C45.0523 32.7189 44.9429 32.8064 44.8194 32.8694C44.6959 32.9325 44.5607 32.9698 44.4223 32.9791C44.284 32.9884 44.1453 32.9695 44.0145 32.9236C43.8836 32.8777 43.7634 32.8057 43.6612 32.712C42.4446 31.5452 41.2636 30.35 40.104 29.1548C39.9726 28.982 39.8736 28.7867 39.8122 28.5785Z" fill="#002159"/>
<path d="M40.9578 11.4471C40.7422 11.426 40.5356 11.3493 40.3585 11.2246C40.1815 11.0999 40.0397 10.9315 39.9472 10.7356C39.8371 10.5603 39.7867 10.354 39.8034 10.1476C39.8201 9.94115 39.9031 9.74565 40.04 9.59021C41.2352 8.35942 42.4444 7.13575 43.6823 5.94764C43.7865 5.85548 43.9082 5.78519 44.0401 5.74092C44.1719 5.69664 44.3113 5.6793 44.45 5.68992C44.5887 5.70054 44.7238 5.73889 44.8474 5.80272C44.971 5.86654 45.0805 5.95453 45.1694 6.06147C45.2755 6.16308 45.3598 6.28512 45.4175 6.42022C45.4752 6.55533 45.505 6.70071 45.505 6.84761C45.505 6.99452 45.4752 7.1399 45.4175 7.27501C45.3598 7.41011 45.2755 7.53215 45.1694 7.63375C44.3371 8.50883 43.4762 9.34832 42.6224 10.1949C42.3729 10.4717 42.1068 10.7331 41.8255 10.9775C41.5486 11.1559 41.2586 11.3129 40.9578 11.4471Z" fill="#002159"/>
</g>
<defs>
<linearGradient id="paint0_linear_109_535" x1="11.4115" y1="19.3256" x2="35.2976" y2="19.3256" gradientUnits="userSpaceOnUse">
<stop stop-color="#FF675A"/>
<stop offset="1" stop-color="#FF895B"/>
</linearGradient>
<linearGradient id="paint1_linear_109_535" x1="3.43625" y1="33.9429" x2="10.2709" y2="33.9429" gradientUnits="userSpaceOnUse">
<stop stop-color="#FF675A"/>
<stop offset="1" stop-color="#FF895B"/>
</linearGradient>
<clipPath id="clip0_109_535">
<rect width="50" height="38.6525" fill="white"/>
</clipPath>
</defs>
</svg>
