<svg width="20" height="20" viewBox="0 0 20 20" fill="none" xmlns="http://www.w3.org/2000/svg">
<path d="M19.2447 12.6232C18.7841 14.4646 17.7866 16.1284 16.3783 17.4042C14.9701 18.6801 13.2143 19.5106 11.333 19.7908C9.45165 20.071 7.5293 19.7883 5.809 18.9785C4.08869 18.1687 2.64768 16.8681 1.66817 15.2411C0.688654 13.6142 0.214631 11.734 0.306036 9.83829C0.39744 7.94256 1.05017 6.11644 2.18168 4.59084C3.3132 3.06524 4.87269 1.90866 6.66296 1.26734C8.45324 0.62603 10.3939 0.528785 12.2396 0.987903C13.4655 1.2925 14.6192 1.83515 15.6348 2.58485C16.6504 3.33455 17.508 4.2766 18.1586 5.35715C18.8091 6.43771 19.2399 7.63559 19.4263 8.88233C19.6126 10.1291 19.5509 11.4002 19.2447 12.6232Z" fill="#F7931A"/>
<path d="M14.1544 8.93414C14.3452 7.65669 13.3706 6.96843 12.038 6.51219L12.4717 4.78111L11.4266 4.52041L11.0059 6.20456L10.1489 6.01425L10.5722 4.31966L9.52701 4.05896L9.09589 5.79004C8.86596 5.7379 8.64125 5.68576 8.42177 5.63101L6.9664 5.26863L6.68682 6.39227C6.68682 6.39227 7.47068 6.57216 7.45239 6.58258C7.59861 6.59962 7.7322 6.67351 7.82417 6.7882C7.91613 6.9029 7.95905 7.04916 7.94361 7.19524L7.44978 9.17399L6.75998 11.9349C6.74624 11.9842 6.72268 12.0302 6.69069 12.0702C6.65871 12.1102 6.61897 12.1434 6.57384 12.1677C6.52872 12.1921 6.47913 12.2071 6.42806 12.2119C6.37699 12.2167 6.32547 12.2111 6.2766 12.1956C6.2766 12.2112 5.50841 12.0052 5.50841 12.0052L4.98584 13.2123L6.36021 13.5538C6.6215 13.6164 6.8645 13.6842 7.11011 13.7468L6.67376 15.4961L7.71891 15.7568L8.15264 14.0257C8.44006 14.1039 8.71964 14.1743 8.99137 14.2421L8.56025 15.9654L9.6054 16.2261L10.0444 14.4793C11.842 14.8183 13.1981 14.6827 13.7651 13.0585C14.225 11.755 13.7442 10.9963 12.7957 10.5036C13.4855 10.3446 14.0055 9.89093 14.144 8.95761L14.1544 8.93414ZM11.7427 12.3077C11.4161 13.6112 9.21086 12.9099 8.49493 12.73L9.07237 10.4123C9.7883 10.5896 12.0824 10.9337 11.7427 12.3077ZM12.0693 8.9185C11.7715 10.1099 9.93462 9.50509 9.33889 9.35648L9.86146 7.2526C10.4598 7.39598 12.3803 7.67233 12.0693 8.91329V8.9185Z" fill="white"/>
</svg>
