<svg width="19" height="19" viewBox="0 0 19 19" fill="none" xmlns="http://www.w3.org/2000/svg">
<path d="M9.6363 0.10907C11.4463 0.10907 13.2156 0.645791 14.7205 1.65136C16.2255 2.65694 17.3984 4.08619 18.0911 5.7584C18.7837 7.4306 18.9651 9.27066 18.612 11.0459C18.2589 12.8211 17.3872 14.4517 16.1074 15.7315C14.8275 17.0114 13.1968 17.883 11.4216 18.2361C9.6464 18.5892 7.80641 18.408 6.13421 17.7153C4.462 17.0227 3.0328 15.8497 2.02723 14.3448C1.02166 12.8398 0.484863 11.0705 0.484863 9.2605C0.484863 6.83339 1.44898 4.50569 3.1652 2.78946C4.88143 1.07323 7.20919 0.10907 9.6363 0.10907Z" fill="#F0B90B"/>
<path d="M7.2631 8.29039L8.65411 6.90547L8.94696 6.61263L9.63637 5.91712L11.9974 8.29039L13.3763 6.90547L9.63637 3.16559L5.89038 6.90547L7.2631 8.29039Z" fill="white"/>
<path d="M9.63936 7.89225L8.25879 9.27283L9.63928 10.6533L11.0199 9.27275L9.63936 7.89225Z" fill="white"/>
<path d="M11.9974 10.261L9.63637 12.6221L8.80664 11.7924L8.65411 11.6399L7.2631 10.261L5.89038 11.6338L9.63637 15.3736L13.3763 11.6338L11.9974 10.261Z" fill="white"/>
<path d="M4.89878 7.8887L3.51831 9.26917L4.8988 10.6497L6.27927 9.26918L4.89878 7.8887Z" fill="white"/>
<path d="M14.3718 7.89647L12.9912 9.27704L14.3717 10.6575L15.7523 9.27695L14.3718 7.89647Z" fill="white"/>
</svg>
