<svg width="44" height="36" viewBox="0 0 44 36" fill="none" xmlns="http://www.w3.org/2000/svg">
<path d="M21.4213 35.9183H8.56586C7.82081 35.9183 7.56158 35.587 7.78834 34.8973C9.63939 29.2338 11.4904 23.5689 13.3415 17.9024C13.3806 17.7228 13.4869 17.5641 13.6393 17.4574C13.7918 17.3508 13.9795 17.3039 14.1653 17.3261C19.0244 17.3261 23.8865 17.3261 28.7517 17.3261C29.3024 17.3261 29.4595 17.4395 29.6261 17.9569C31.4556 23.5961 33.279 29.2399 35.0961 34.8882C35.3183 35.5825 35.0637 35.9138 34.3279 35.9138L21.4213 35.9183Z" fill="white"/>
<path d="M13.5869 16.06C13.7304 15.2341 13.8645 14.44 14.0034 13.6503C14.1653 12.7155 14.3412 11.7852 14.4939 10.8504C14.5405 10.4315 14.7073 10.0343 14.9752 9.70487C15.2431 9.37547 15.6011 9.12748 16.0072 8.98981C16.7784 8.71526 17.5707 8.5013 18.3766 8.34995C19.2604 8.1775 19.5518 8.52693 19.4453 9.39369C19.3927 9.82833 19.4146 10.2685 19.5102 10.6961C19.8505 12.0058 20.5387 13.2037 21.5047 14.1677C22.5737 13.0196 23.4947 11.8442 23.6428 10.2604C23.6546 9.92169 23.6203 9.5829 23.5409 9.25301C23.4344 8.69483 23.7121 8.29095 24.2721 8.31818C25.3587 8.37447 26.4157 8.68573 27.3541 9.22578C27.6605 9.40385 27.9194 9.65043 28.11 9.94539C28.3006 10.2404 28.4173 10.5753 28.4507 10.923C28.6821 12.5476 28.9413 14.1677 29.1912 15.7877C29.1912 15.8694 29.1913 15.9556 29.2145 16.0736L13.5869 16.06Z" fill="white"/>
<path d="M43.0233 32.3651C43.0233 33.2999 43.0233 34.2347 43.0233 35.165C43.0233 35.7187 42.764 35.9909 42.2179 35.9909C40.4456 35.9909 38.6686 35.9909 36.8962 35.9909C36.6416 35.9909 36.5585 35.8956 36.4937 35.6642C35.795 33.1184 35.0776 30.5726 34.3835 28.0222C34.3455 27.8203 34.3849 27.6118 34.4944 27.4368C34.8327 26.924 35.29 26.4972 35.829 26.1911C36.3679 25.8851 36.9732 25.7086 37.5951 25.676C39.5479 25.4809 41.1815 26.0572 42.3569 27.6592C42.7895 28.2488 43.0225 28.9567 43.0233 29.6831C43.0233 30.5907 43.0233 31.4665 43.0233 32.356V32.3651Z" fill="white"/>
<path d="M6.28438 35.8457H0.879444C0.254713 35.8457 0.0140214 35.6143 0.0140214 35.0016C0.0140214 33.2908 0.0510425 31.58 0.0140214 29.8691C0.00639079 28.7899 0.413484 27.7474 1.15444 26.9493C1.89539 26.1512 2.91589 25.6561 4.01236 25.5626C4.76109 25.4345 5.5302 25.4847 6.255 25.709C6.97981 25.9332 7.6391 26.325 8.17724 26.8514C8.39287 27.0211 8.54545 27.2557 8.61153 27.519C8.67761 27.7823 8.65352 28.0596 8.54284 28.3081C7.84869 30.2549 7.2284 32.2244 6.61292 34.2075C6.47176 34.747 6.36208 35.2939 6.28438 35.8457Z" fill="white"/>
<path d="M35.4709 18.3925C33.3792 18.3925 31.7687 17.1083 31.6068 15.3657C31.5524 14.8916 31.6157 14.4117 31.7914 13.9668C31.967 13.522 32.2497 13.1254 32.6155 12.8108C33.3378 12.1667 34.2792 11.8097 35.2556 11.8097C36.2319 11.8097 37.1733 12.1667 37.8957 12.8108C38.3316 13.1679 38.6556 13.6386 38.83 14.1687C39.0044 14.6987 39.0221 15.2663 38.8813 15.8059C38.735 16.3954 38.4265 16.9341 37.989 17.3631C37.5515 17.7921 37.0021 18.0948 36.4009 18.2383C36.0956 18.314 35.7847 18.3656 35.4709 18.3925Z" fill="white"/>
<path d="M38.2012 18.7284C38.7397 18.7095 39.2763 18.8033 39.775 19.0036C40.2737 19.204 40.7231 19.5061 41.0934 19.8901C41.404 20.1982 41.644 20.5676 41.7977 20.9737C41.9515 21.3799 42.0155 21.8134 41.9853 22.2456C41.9551 22.6778 41.8315 23.0988 41.6226 23.4806C41.4138 23.8623 41.1246 24.1961 40.7742 24.4599C40.0542 25.0286 39.1519 25.3289 38.2276 25.3073C37.3033 25.2857 36.4168 24.9436 35.7253 24.3419C35.2378 23.9555 34.8863 23.4288 34.7203 22.8361C34.5542 22.2434 34.582 21.6146 34.7998 21.0382C35.0112 20.4239 35.3995 19.8828 35.9176 19.4802C36.4358 19.0776 37.0617 18.8306 37.7199 18.7692C37.8794 18.7471 38.0401 18.7334 38.2012 18.7284Z" fill="white"/>
<path d="M4.61379 25.2132C3.64981 25.1643 2.73475 24.7815 2.03153 24.1331C1.72509 23.863 1.47767 23.5347 1.3044 23.168C1.13113 22.8014 1.03565 22.4041 1.02353 22.0002C1.01142 21.5963 1.08313 21.1942 1.23413 20.8182C1.38512 20.4423 1.61233 20.1003 1.90206 19.8129C2.56549 19.1532 3.44815 18.7486 4.38987 18.6729C5.33158 18.5971 6.2698 18.8551 7.03404 19.4C8.07063 20.185 8.60746 21.2152 8.33443 22.5085C8.0614 23.8018 7.10338 24.6414 5.80301 25.0226C5.41131 25.1118 5.01408 25.1754 4.61379 25.2132Z" fill="white"/>
<path d="M21.5002 0C22.124 0.0293401 22.7239 0.244401 23.22 0.616529C23.716 0.988656 24.0847 1.50018 24.2768 2.08294C24.3617 2.28953 24.4702 2.48594 24.6006 2.66835C24.8706 3.06526 24.9909 3.54206 24.9411 4.01666C24.8913 4.49126 24.6744 4.93399 24.3276 5.26862C24.1906 5.40874 24.0666 5.56062 23.9573 5.72243C23.6119 6.22203 23.2267 6.69395 22.8051 7.13375C22.6331 7.3032 22.4287 7.43766 22.2036 7.52941C21.9785 7.62116 21.737 7.6684 21.4932 7.6684C21.2494 7.6684 21.0079 7.62116 20.7828 7.52941C20.5576 7.43766 20.3533 7.3032 20.1813 7.13375C19.9144 6.89643 19.6726 6.63341 19.4593 6.34867C19.1123 5.9221 18.7975 5.47283 18.4597 5.03719C18.2258 4.67103 18.0986 4.24902 18.0921 3.817C18.0855 3.38497 18.1999 2.95945 18.4226 2.58667C18.5512 2.4032 18.6599 2.20699 18.7467 2.00126C18.9542 1.43919 19.3259 0.949584 19.8157 0.59364C20.3054 0.237695 20.8915 0.0312103 21.5002 0Z" fill="white"/>
<path d="M7.64476 11.8669C8.57218 11.8398 9.48042 12.1302 10.2132 12.6883C10.5596 12.9448 10.8461 13.2711 11.0534 13.6451C11.2606 14.0191 11.384 14.4323 11.4151 14.8569C11.4462 15.2815 11.3843 15.7077 11.2337 16.107C11.083 16.5062 10.8472 16.8693 10.5418 17.1718C10.1738 17.5368 9.73565 17.8265 9.25269 18.0243C8.76972 18.222 8.25152 18.3239 7.72814 18.3239C7.20477 18.3239 6.68656 18.222 6.2036 18.0243C5.72064 17.8265 5.28248 17.5368 4.9145 17.1718C4.6268 16.8874 4.40129 16.5485 4.25154 16.1757C4.10179 15.803 4.0311 15.4043 4.04366 15.0038C4.05622 14.6034 4.15171 14.2097 4.32453 13.8467C4.49735 13.4837 4.74374 13.159 5.04872 12.8925C5.75225 12.2433 6.67884 11.8773 7.64476 11.8669Z" fill="white"/>
<path d="M8.45018 18.8191C9.44033 18.8942 10.373 19.305 11.088 19.9809C11.1219 20.0216 11.1463 20.0691 11.1599 20.12C11.1735 20.1708 11.1758 20.224 11.1667 20.2758C10.5466 22.1863 9.91243 24.0968 9.28307 26.0028C9.28307 26.0028 9.28304 26.0028 9.25528 26.03L8.25586 25.1723C10.1671 22.7899 10.1948 21.61 8.45018 18.8191Z" fill="white"/>
<path d="M34.5036 18.751C32.759 21.5101 32.8099 22.7763 34.7628 25.1769L33.7308 26.0845L33.3607 24.95C32.8702 23.4433 32.389 21.9367 31.8845 20.4392C31.8331 20.3392 31.8212 20.2241 31.8511 20.116C31.881 20.008 31.9504 19.9146 32.0463 19.8538C32.7505 19.2779 33.5989 18.8972 34.5036 18.751Z" fill="white"/>
</svg>
