<svg width="44" height="36" viewBox="0 0 44 36" fill="none" xmlns="http://www.w3.org/2000/svg">
<path d="M21.4213 35.9183H8.5658C7.82075 35.9183 7.56152 35.587 7.78828 34.8973C9.63933 29.2338 11.4904 23.5689 13.3414 17.9024C13.3805 17.7228 13.4868 17.5641 13.6393 17.4574C13.7917 17.3508 13.9794 17.3039 14.1653 17.3261C19.0243 17.3261 23.8864 17.3261 28.7516 17.3261C29.3023 17.3261 29.4595 17.4395 29.6261 17.9569C31.4555 23.5961 33.279 29.2399 35.0961 34.8882C35.3182 35.5825 35.0636 35.9138 34.3278 35.9138L21.4213 35.9183Z" fill="white" fill-opacity="0.5"/>
<path d="M13.5868 16.06C13.7302 15.2341 13.8644 14.44 14.0032 13.6503C14.1652 12.7155 14.3411 11.7852 14.4938 10.8504C14.5404 10.4315 14.7072 10.0343 14.9751 9.70487C15.243 9.37547 15.601 9.12748 16.007 8.98981C16.7783 8.71526 17.5706 8.5013 18.3764 8.34995C19.2603 8.1775 19.5517 8.52693 19.4452 9.39369C19.3925 9.82833 19.4145 10.2685 19.5101 10.6961C19.8504 12.0058 20.5386 13.2037 21.5046 14.1677C22.5736 13.0196 23.4946 11.8442 23.6426 10.2604C23.6545 9.92169 23.6201 9.5829 23.5407 9.25301C23.4343 8.69483 23.712 8.29095 24.2719 8.31818C25.3585 8.37447 26.4156 8.68573 27.354 9.22578C27.6603 9.40385 27.9192 9.65043 28.1098 9.94539C28.3005 10.2404 28.4172 10.5753 28.4506 10.923C28.682 12.5476 28.9412 14.1677 29.1911 15.7877C29.1911 15.8694 29.1912 15.9556 29.2143 16.0736L13.5868 16.06Z" fill="white" fill-opacity="0.5"/>
<path d="M43.0233 32.3651C43.0233 33.2999 43.0233 34.2347 43.0233 35.165C43.0233 35.7187 42.764 35.9909 42.2179 35.9909C40.4456 35.9909 38.6686 35.9909 36.8962 35.9909C36.6416 35.9909 36.5585 35.8956 36.4937 35.6642C35.795 33.1184 35.0776 30.5726 34.3835 28.0222C34.3455 27.8203 34.3849 27.6118 34.4944 27.4368C34.8327 26.924 35.29 26.4972 35.829 26.1911C36.3679 25.8851 36.9732 25.7086 37.5951 25.676C39.5479 25.4809 41.1815 26.0572 42.3569 27.6592C42.7895 28.2488 43.0225 28.9567 43.0233 29.6831C43.0233 30.5907 43.0233 31.4665 43.0233 32.356V32.3651Z" fill="white" fill-opacity="0.5"/>
<path d="M6.28438 35.8457H0.879444C0.254713 35.8457 0.0140214 35.6143 0.0140214 35.0016C0.0140214 33.2908 0.0510425 31.58 0.0140214 29.8691C0.00639079 28.7899 0.413484 27.7474 1.15444 26.9493C1.89539 26.1512 2.91589 25.6561 4.01236 25.5626C4.76109 25.4345 5.5302 25.4847 6.255 25.709C6.97981 25.9332 7.6391 26.325 8.17724 26.8514C8.39287 27.0211 8.54545 27.2557 8.61153 27.519C8.67761 27.7823 8.65352 28.0596 8.54284 28.3081C7.84869 30.2549 7.2284 32.2244 6.61292 34.2075C6.47176 34.747 6.36208 35.2939 6.28438 35.8457Z" fill="white" fill-opacity="0.5"/>
<path d="M35.4708 18.3925C33.3792 18.3925 31.7687 17.1083 31.6067 15.3657C31.5524 14.8916 31.6157 14.4117 31.7913 13.9668C31.967 13.522 32.2497 13.1254 32.6154 12.8108C33.3378 12.1667 34.2791 11.8097 35.2555 11.8097C36.2319 11.8097 37.1732 12.1667 37.8956 12.8108C38.3315 13.1679 38.6555 13.6386 38.8299 14.1687C39.0044 14.6987 39.022 15.2663 38.8812 15.8059C38.735 16.3954 38.4264 16.9341 37.9889 17.3631C37.5515 17.7921 37.002 18.0948 36.4009 18.2383C36.0955 18.314 35.7846 18.3656 35.4708 18.3925Z" fill="white" fill-opacity="0.5"/>
<path d="M38.2013 18.7284C38.7399 18.7095 39.2764 18.8033 39.7751 19.0036C40.2738 19.204 40.7232 19.5061 41.0936 19.8901C41.4041 20.1982 41.6441 20.5676 41.7979 20.9737C41.9516 21.3799 42.0156 21.8134 41.9854 22.2456C41.9552 22.6778 41.8316 23.0988 41.6227 23.4806C41.4139 23.8623 41.1248 24.1961 40.7743 24.4599C40.0543 25.0286 39.152 25.3289 38.2277 25.3073C37.3034 25.2857 36.417 24.9436 35.7254 24.3419C35.238 23.9555 34.8864 23.4288 34.7204 22.8361C34.5543 22.2434 34.5821 21.6146 34.7999 21.0382C35.0114 20.4239 35.3996 19.8828 35.9177 19.4802C36.4359 19.0776 37.0619 18.8306 37.72 18.7692C37.8795 18.7471 38.0402 18.7334 38.2013 18.7284Z" fill="white" fill-opacity="0.5"/>
<path d="M4.61373 25.2132C3.64975 25.1643 2.73469 24.7815 2.03147 24.1331C1.72503 23.863 1.47761 23.5347 1.30434 23.168C1.13107 22.8014 1.03558 22.4041 1.02347 22.0002C1.01136 21.5963 1.08307 21.1942 1.23406 20.8182C1.38506 20.4423 1.61227 20.1003 1.902 19.8129C2.56543 19.1532 3.44809 18.7486 4.38981 18.6729C5.33152 18.5971 6.26974 18.8551 7.03398 19.4C8.07057 20.185 8.6074 21.2152 8.33437 22.5085C8.06134 23.8018 7.10332 24.6414 5.80295 25.0226C5.41125 25.1118 5.01402 25.1754 4.61373 25.2132Z" fill="white" fill-opacity="0.5"/>
<path d="M21.5001 0C22.124 0.0293401 22.7239 0.244401 23.2199 0.616529C23.716 0.988656 24.0846 1.50018 24.2767 2.08294C24.3616 2.28953 24.4702 2.48594 24.6005 2.66835C24.8705 3.06526 24.9909 3.54206 24.941 4.01666C24.8912 4.49126 24.6744 4.93399 24.3276 5.26862C24.1906 5.40874 24.0665 5.56062 23.9572 5.72243C23.6118 6.22203 23.2266 6.69395 22.805 7.13375C22.6331 7.3032 22.4287 7.43766 22.2035 7.52941C21.9784 7.62116 21.7369 7.6684 21.4931 7.6684C21.2493 7.6684 21.0079 7.62116 20.7827 7.52941C20.5576 7.43766 20.3532 7.3032 20.1812 7.13375C19.9144 6.89643 19.6725 6.63341 19.4593 6.34867C19.1122 5.9221 18.7975 5.47283 18.4596 5.03719C18.2257 4.67103 18.0985 4.24902 18.092 3.817C18.0855 3.38497 18.1998 2.95945 18.4226 2.58667C18.5512 2.4032 18.6598 2.20699 18.7466 2.00126C18.9541 1.43919 19.3259 0.949584 19.8156 0.59364C20.3053 0.237695 20.8914 0.0312103 21.5001 0Z" fill="white" fill-opacity="0.5"/>
<path d="M7.64483 11.8669C8.57224 11.8398 9.48048 12.1302 10.2133 12.6883C10.5597 12.9448 10.8461 13.2711 11.0534 13.6451C11.2607 14.0191 11.3841 14.4323 11.4152 14.8569C11.4463 15.2815 11.3843 15.7077 11.2337 16.107C11.0831 16.5062 10.8473 16.8693 10.5418 17.1718C10.1739 17.5368 9.73571 17.8265 9.25275 18.0243C8.76978 18.222 8.25158 18.3239 7.7282 18.3239C7.20483 18.3239 6.68662 18.222 6.20366 18.0243C5.7207 17.8265 5.28254 17.5368 4.91457 17.1718C4.62686 16.8874 4.40135 16.5485 4.2516 16.1757C4.10185 15.803 4.03116 15.4043 4.04372 15.0038C4.05628 14.6034 4.15177 14.2097 4.32459 13.8467C4.49741 13.4837 4.74381 13.159 5.04878 12.8925C5.75231 12.2433 6.6789 11.8773 7.64483 11.8669Z" fill="white" fill-opacity="0.5"/>
<path d="M8.45006 18.8191C9.44021 18.8942 10.3729 19.305 11.0879 19.9809C11.1218 20.0216 11.1462 20.0691 11.1598 20.12C11.1733 20.1708 11.1757 20.224 11.1665 20.2758C10.5464 22.1863 9.9123 24.0968 9.28295 26.0028C9.28295 26.0028 9.28292 26.0028 9.25515 26.03L8.25574 25.1723C10.167 22.7899 10.1947 21.61 8.45006 18.8191Z" fill="white" fill-opacity="0.5"/>
<path d="M34.5037 18.751C32.7591 21.5101 32.81 22.7763 34.7629 25.1769L33.7309 26.0845L33.3608 24.95C32.8703 23.4433 32.389 21.9367 31.8846 20.4392C31.8332 20.3392 31.8213 20.2241 31.8512 20.116C31.8811 20.008 31.9505 19.9146 32.0464 19.8538C32.7506 19.2779 33.599 18.8972 34.5037 18.751Z" fill="white" fill-opacity="0.5"/>
</svg>
