<svg width="31" height="39" viewBox="0 0 31 39" fill="none" xmlns="http://www.w3.org/2000/svg">
<path d="M16.7459 37.5487C16.56 37.5487 16.4484 37.5487 16.3322 37.5487C12.199 37.5487 8.06875 37.5487 3.94172 37.5487C3.47661 37.5774 3.01184 37.489 2.58966 37.2915C2.16749 37.094 1.80151 36.7938 1.52513 36.4183C1.14472 35.8649 0.959933 35.2002 1.00001 34.5297C1.00001 26.1566 1.00001 17.8006 1.00001 9.46159C1.00001 8.74988 1.00001 8.03817 1.00001 7.32646C0.978559 6.94777 1.03703 6.56882 1.17179 6.21432C1.30655 5.85983 1.51449 5.53775 1.78201 5.26912C2.04953 5.00048 2.37072 4.79132 2.72446 4.65528C3.0782 4.51924 3.45642 4.45938 3.83484 4.4796C9.50176 4.4796 15.1687 4.4796 20.8356 4.4796C21.214 4.45795 21.5926 4.51667 21.9467 4.65191C22.3008 4.78715 22.6223 4.99584 22.8901 5.26428C23.1578 5.53272 23.3657 5.85482 23.5003 6.20944C23.6348 6.56405 23.693 6.94314 23.6707 7.3218C23.6707 12.1689 23.6707 17.0144 23.6707 21.8584V22.2306C19.7203 22.2724 16.8435 24.0912 15.1844 27.6033C13.5252 31.1153 14.2548 34.5064 16.7459 37.5487ZM10.2393 20.6815C12.0131 20.6817 13.7156 19.9829 14.9785 18.7363C16.2414 17.4896 16.9631 15.7955 16.9876 14.0203C17.0212 13.1134 16.8717 12.2091 16.5482 11.3614C16.2247 10.5136 15.7338 9.73991 15.1047 9.08643C14.4756 8.43296 13.7213 7.91316 12.8869 7.55812C12.0525 7.20308 11.1553 7.02009 10.2486 7.02009C9.34195 7.02009 8.44445 7.20308 7.61007 7.55812C6.77569 7.91316 6.02159 8.43296 5.39249 9.08643C4.7634 9.73991 4.27226 10.5136 3.94876 11.3614C3.62525 12.2091 3.47599 13.1134 3.50964 14.0203C3.53641 15.7915 4.2562 17.4815 5.51458 18.7271C6.77297 19.9727 8.46949 20.6744 10.2393 20.6815ZM9.77454 23.6865H15.031C15.5794 23.6865 15.9045 23.4307 15.9185 23.0074C15.9324 22.5841 15.5933 22.291 15.0217 22.291H4.51336C3.96495 22.291 3.63977 22.5469 3.62583 22.9702C3.61189 23.3935 3.95102 23.6865 4.52267 23.6865H9.77454ZM8.25478 28.4173H10.4717C11.0526 28.4173 11.6288 28.4173 12.2097 28.4173C12.2971 28.4187 12.384 28.4022 12.4648 28.3687C12.5456 28.3353 12.6186 28.2857 12.6795 28.223C12.7404 28.1602 12.788 28.0857 12.8191 28.0039C12.8502 27.9222 12.8644 27.8349 12.8606 27.7475C12.8697 27.578 12.8127 27.4116 12.7017 27.2832C12.5908 27.1548 12.4345 27.0744 12.2656 27.059C12.1217 27.0474 11.9771 27.0474 11.8333 27.059H6.35854C5.69394 27.059 5.02943 27.059 4.36018 27.059C4.245 27.0508 4.12954 27.0717 4.02455 27.1198C3.91956 27.1679 3.82826 27.2417 3.75927 27.3344C3.69028 27.4271 3.64572 27.5357 3.62969 27.6502C3.61366 27.7646 3.62672 27.8813 3.66759 27.9894C3.72476 28.1418 3.83146 28.2705 3.97054 28.3549C4.10962 28.4392 4.27296 28.4743 4.43439 28.4546L8.25478 28.4173ZM7.94343 31.7712H4.46707C3.94654 31.7712 3.63513 32.0271 3.62583 32.4411C3.61654 32.8551 3.94644 33.1574 4.48091 33.1574C6.76751 33.1574 9.05733 33.1574 11.3501 33.1574C11.8892 33.1574 12.2097 32.8876 12.2097 32.4504C12.2097 32.0131 11.8984 31.7712 11.3361 31.7712H7.94343Z" fill="white" fill-opacity="0.5"/>
<path d="M24.0938 23.7424C26.0431 23.9354 27.8439 24.8705 29.1242 26.3543C30.4045 27.8382 31.0663 29.7576 30.9733 31.7159C30.8802 33.6743 30.0393 35.5221 28.6241 36.8777C27.2088 38.2332 25.3276 38.993 23.3688 39C21.4609 38.9998 19.6228 38.2826 18.2181 36.9904C16.8134 35.6982 15.9445 33.9252 15.7838 32.0224H23.076C23.8708 32.0224 24.0892 31.8084 24.0938 31.0177V23.7424Z" fill="white" fill-opacity="0.5"/>
<path d="M7.12092 3.10738C7.15345 2.17703 7.3207 1.35368 7.9853 0.730348C8.2675 0.456316 8.60833 0.250224 8.98198 0.127712C9.35563 0.0052008 9.75233 -0.0305109 10.1418 0.0232872L22.0814 1.54905L27.1937 2.19099C28.8901 2.40031 29.8613 3.5865 29.6475 5.30299C29.1502 9.28951 28.6343 13.2714 28.1278 17.2533C27.8814 19.1512 27.663 21.0491 27.4027 22.947C27.3944 23.0174 27.3822 23.0873 27.3657 23.1563L25.0419 22.3887V21.9236C25.0419 17.0641 25.0419 12.2046 25.0419 7.34509C25.0743 6.37026 24.7569 5.41601 24.1474 4.65496C23.5379 3.89391 22.6764 3.3763 21.7187 3.19576C21.3473 3.1335 20.9705 3.10856 20.5941 3.12133H7.11615L7.12092 3.10738Z" fill="white" fill-opacity="0.5"/>
<path d="M22.6623 29.4779L18.5864 25.3937C19.7431 24.4347 21.1656 23.8535 22.6623 23.7284V29.4779Z" fill="white" fill-opacity="0.5"/>
<path d="M15.77 30.613C15.9032 29.1211 16.4831 27.7041 17.4338 26.5474L21.4957 30.613H15.77Z" fill="white" fill-opacity="0.5"/>
<path d="M10.2625 19.2488C9.55384 19.2647 8.84941 19.1367 8.19153 18.8726C7.53365 18.6084 6.93607 18.2136 6.43485 17.7119C5.93362 17.2102 5.53914 16.6121 5.27523 15.9537C5.01132 15.2952 4.88333 14.59 4.8992 13.8807C4.95301 12.5003 5.53797 11.1942 6.53152 10.2353C7.52507 9.27639 8.8503 8.73897 10.2305 8.73537C11.6107 8.73177 12.9389 9.26226 13.9374 10.216C14.936 11.1696 15.5276 12.4727 15.5886 13.8528C15.6094 14.5616 15.4865 15.2672 15.2271 15.927C14.9676 16.5868 14.5772 17.1871 14.0793 17.6915C13.5814 18.196 12.9863 18.5941 12.3303 18.8617C11.6743 19.1294 10.9708 19.2611 10.2625 19.2488ZM12.3773 12.3224C12.3552 11.9715 12.2425 11.6322 12.0503 11.3379C11.858 11.0436 11.5926 10.8042 11.2803 10.6431C11.1702 10.5982 11.0779 10.5183 11.0175 10.4158C10.9571 10.3133 10.9319 10.1938 10.9458 10.0756C10.9458 9.40113 10.7227 9.07086 10.2673 9.06155C9.81181 9.05225 9.56537 9.37787 9.56537 10.0849C9.58557 10.1894 9.56943 10.2977 9.51953 10.3916C9.46963 10.4856 9.38906 10.5596 9.29124 10.6013C8.86882 10.805 8.52743 11.1455 8.32247 11.5677C8.1175 11.9898 8.06087 12.4688 8.1618 12.9271C8.25564 13.401 8.50792 13.8287 8.87709 14.1399C9.24626 14.451 9.71036 14.627 10.1928 14.639C10.6901 14.6762 10.9829 14.9506 10.9876 15.3786C10.9898 15.5614 10.9238 15.7384 10.8026 15.8751C10.6814 16.0119 10.5137 16.0986 10.3322 16.1182C9.89066 16.1647 9.58866 15.8903 9.50501 15.3693C9.5031 15.2708 9.47998 15.1738 9.43716 15.0851C9.39433 14.9964 9.33289 14.918 9.25697 14.8552C9.18106 14.7925 9.09251 14.7469 8.99736 14.7217C8.90221 14.6964 8.80254 14.692 8.70553 14.7087C8.61177 14.7215 8.52168 14.7534 8.4407 14.8023C8.35972 14.8513 8.28974 14.9164 8.23487 14.9936C8.18 15.0707 8.14137 15.1583 8.12163 15.2509C8.10189 15.3436 8.1014 15.4392 8.12004 15.5321C8.12537 15.8318 8.20284 16.1257 8.34607 16.3889C8.48929 16.6522 8.69404 16.8769 8.94267 17.0439C9.16088 17.1412 9.34181 17.3067 9.45826 17.5155C9.57471 17.7243 9.62048 17.9652 9.58875 18.2022C9.56086 18.565 9.84428 18.7836 10.2021 18.8069C10.3708 18.8281 10.5411 18.7818 10.676 18.6782C10.8108 18.5746 10.8993 18.4219 10.9224 18.2533C10.9524 18.127 10.9619 17.9966 10.9503 17.8673C10.9217 17.735 10.9417 17.5968 11.0066 17.4781C11.0715 17.3593 11.177 17.2679 11.3037 17.2207C11.6652 17.0158 11.9574 16.7076 12.1429 16.3355C12.3283 15.9634 12.3985 15.5444 12.3446 15.132C12.294 14.7041 12.1145 14.3016 11.8297 13.9784C11.5449 13.6551 11.1686 13.4263 10.7506 13.3225C10.5415 13.2714 10.3182 13.2714 10.1091 13.2295C9.93737 13.1947 9.78341 13.1006 9.67384 12.9638C9.56428 12.8269 9.50606 12.6559 9.50955 12.4806C9.51842 12.3055 9.58783 12.1389 9.70562 12.0091C9.8234 11.8793 9.98234 11.7944 10.1556 11.7689C10.3377 11.748 10.5211 11.7947 10.671 11.9002C10.8209 12.0057 10.9269 12.1625 10.9689 12.341C10.9689 12.4108 10.9691 12.4852 10.9923 12.555C11.0016 12.6456 11.0285 12.7335 11.072 12.8135C11.1154 12.8936 11.1742 12.9642 11.2451 13.0213C11.316 13.0784 11.3976 13.1209 11.485 13.1462C11.5724 13.1716 11.6639 13.1793 11.7544 13.169C12.1355 13.1225 12.3773 12.8341 12.3773 12.3224Z" fill="white" fill-opacity="0.5"/>
</svg>
