<svg width="31" height="39" viewBox="0 0 31 39" fill="none" xmlns="http://www.w3.org/2000/svg">
<path d="M16.7459 37.5487C16.56 37.5487 16.4484 37.5487 16.3322 37.5487C12.199 37.5487 8.06875 37.5487 3.94172 37.5487C3.47661 37.5774 3.01184 37.489 2.58966 37.2915C2.16749 37.094 1.80151 36.7938 1.52513 36.4183C1.14472 35.8649 0.959933 35.2002 1.00001 34.5297C1.00001 26.1566 1.00001 17.8006 1.00001 9.46159C1.00001 8.74988 1.00001 8.03817 1.00001 7.32646C0.978559 6.94777 1.03703 6.56882 1.17179 6.21432C1.30655 5.85983 1.51449 5.53775 1.78201 5.26912C2.04953 5.00048 2.37072 4.79132 2.72446 4.65528C3.0782 4.51924 3.45642 4.45938 3.83484 4.4796C9.50176 4.4796 15.1687 4.4796 20.8356 4.4796C21.214 4.45795 21.5926 4.51667 21.9467 4.65191C22.3008 4.78715 22.6223 4.99584 22.8901 5.26428C23.1578 5.53272 23.3657 5.85482 23.5003 6.20944C23.6348 6.56405 23.693 6.94314 23.6707 7.3218C23.6707 12.1689 23.6707 17.0144 23.6707 21.8584V22.2306C19.7203 22.2724 16.8435 24.0912 15.1844 27.6033C13.5252 31.1153 14.2548 34.5064 16.7459 37.5487ZM10.2393 20.6815C12.0131 20.6817 13.7156 19.9829 14.9785 18.7363C16.2414 17.4896 16.9631 15.7955 16.9876 14.0203C17.0212 13.1134 16.8717 12.2091 16.5482 11.3614C16.2247 10.5136 15.7338 9.73991 15.1047 9.08643C14.4756 8.43296 13.7213 7.91316 12.8869 7.55812C12.0525 7.20308 11.1553 7.02009 10.2486 7.02009C9.34195 7.02009 8.44445 7.20308 7.61007 7.55812C6.77569 7.91316 6.02159 8.43296 5.39249 9.08643C4.7634 9.73991 4.27226 10.5136 3.94876 11.3614C3.62525 12.2091 3.47599 13.1134 3.50964 14.0203C3.53641 15.7915 4.2562 17.4815 5.51458 18.7271C6.77297 19.9727 8.46949 20.6744 10.2393 20.6815ZM9.77454 23.6865H15.031C15.5794 23.6865 15.9045 23.4307 15.9185 23.0074C15.9324 22.5841 15.5933 22.291 15.0217 22.291H4.51336C3.96495 22.291 3.63977 22.5469 3.62583 22.9702C3.61189 23.3935 3.95102 23.6865 4.52267 23.6865H9.77454ZM8.25478 28.4173H10.4717C11.0526 28.4173 11.6288 28.4173 12.2097 28.4173C12.2971 28.4187 12.384 28.4022 12.4648 28.3687C12.5456 28.3353 12.6186 28.2857 12.6795 28.223C12.7404 28.1602 12.788 28.0857 12.8191 28.0039C12.8502 27.9222 12.8644 27.8349 12.8606 27.7475C12.8697 27.578 12.8127 27.4116 12.7017 27.2832C12.5908 27.1548 12.4345 27.0744 12.2656 27.059C12.1217 27.0474 11.9771 27.0474 11.8333 27.059H6.35854C5.69394 27.059 5.02943 27.059 4.36018 27.059C4.245 27.0508 4.12954 27.0717 4.02455 27.1198C3.91956 27.1679 3.82826 27.2417 3.75927 27.3344C3.69028 27.4271 3.64572 27.5357 3.62969 27.6502C3.61366 27.7646 3.62672 27.8813 3.66759 27.9894C3.72476 28.1418 3.83146 28.2705 3.97054 28.3549C4.10962 28.4392 4.27296 28.4743 4.43439 28.4546L8.25478 28.4173ZM7.94343 31.7712H4.46707C3.94654 31.7712 3.63513 32.0271 3.62583 32.4411C3.61654 32.8551 3.94644 33.1574 4.48091 33.1574C6.76751 33.1574 9.05733 33.1574 11.3501 33.1574C11.8892 33.1574 12.2097 32.8876 12.2097 32.4504C12.2097 32.0131 11.8984 31.7712 11.3361 31.7712H7.94343Z" fill="white"/>
<path d="M24.0937 23.7424C26.043 23.9354 27.8438 24.8705 29.1241 26.3543C30.4044 27.8382 31.0662 29.7576 30.9731 31.7159C30.8801 33.6743 30.0391 35.5221 28.6239 36.8777C27.2087 38.2332 25.3275 38.993 23.3687 39C21.4608 38.9998 19.6226 38.2826 18.218 36.9904C16.8133 35.6982 15.9444 33.9252 15.7837 32.0224H23.0759C23.8706 32.0224 24.0891 31.8084 24.0937 31.0177V23.7424Z" fill="white"/>
<path d="M7.12098 3.10738C7.15351 2.17703 7.32076 1.35368 7.98536 0.730348C8.26756 0.456316 8.60839 0.250224 8.98204 0.127712C9.35569 0.0052008 9.7524 -0.0305109 10.1419 0.0232872L22.0814 1.54905L27.1938 2.19099C28.8901 2.40031 29.8614 3.5865 29.6476 5.30299C29.1503 9.28951 28.6344 13.2714 28.1278 17.2533C27.8815 19.1512 27.663 21.0491 27.4028 22.947C27.3945 23.0174 27.3823 23.0873 27.3658 23.1563L25.042 22.3887V21.9236C25.042 17.0641 25.042 12.2046 25.042 7.34509C25.0744 6.37026 24.7569 5.41601 24.1474 4.65496C23.5379 3.89391 22.6765 3.3763 21.7188 3.19576C21.3473 3.1335 20.9706 3.10856 20.5941 3.12133H7.11621L7.12098 3.10738Z" fill="white"/>
<path d="M22.6623 29.4779L18.5864 25.3937C19.7431 24.4347 21.1656 23.8535 22.6623 23.7284V29.4779Z" fill="white"/>
<path d="M15.77 30.613C15.9033 29.1211 16.4832 27.7041 17.4339 26.5474L21.4957 30.613H15.77Z" fill="white"/>
<path d="M10.2626 19.2488C9.5539 19.2647 8.84947 19.1367 8.19159 18.8726C7.53371 18.6084 6.93614 18.2136 6.43491 17.7119C5.93369 17.2102 5.5392 16.6121 5.27529 15.9537C5.01138 15.2952 4.88339 14.59 4.89926 13.8807C4.95308 12.5003 5.53803 11.1942 6.53158 10.2353C7.52513 9.27639 8.85036 8.73897 10.2306 8.73537C11.6108 8.73177 12.939 9.26226 13.9375 10.216C14.936 11.1696 15.5276 12.4727 15.5887 13.8528C15.6095 14.5616 15.4866 15.2672 15.2271 15.927C14.9677 16.5868 14.5772 17.1871 14.0793 17.6915C13.5814 18.196 12.9864 18.5941 12.3304 18.8617C11.6743 19.1294 10.9709 19.2611 10.2626 19.2488ZM12.3773 12.3224C12.3553 11.9715 12.2426 11.6322 12.0503 11.3379C11.8581 11.0436 11.5927 10.8042 11.2804 10.6431C11.1703 10.5982 11.078 10.5183 11.0176 10.4158C10.9571 10.3133 10.932 10.1938 10.9459 10.0756C10.9459 9.40113 10.7228 9.07086 10.2673 9.06155C9.81187 9.05225 9.56543 9.37787 9.56543 10.0849C9.58563 10.1894 9.56949 10.2977 9.51959 10.3916C9.46969 10.4856 9.38912 10.5596 9.2913 10.6013C8.86888 10.805 8.5275 11.1455 8.32253 11.5677C8.11756 11.9898 8.06094 12.4688 8.16186 12.9271C8.2557 13.401 8.50798 13.8287 8.87715 14.1399C9.24632 14.451 9.71042 14.627 10.1929 14.639C10.6902 14.6762 10.983 14.9506 10.9876 15.3786C10.9898 15.5614 10.9238 15.7384 10.8027 15.8751C10.6815 16.0119 10.5138 16.0986 10.3322 16.1182C9.89072 16.1647 9.58872 15.8903 9.50507 15.3693C9.50316 15.2708 9.48004 15.1738 9.43722 15.0851C9.39439 14.9964 9.33295 14.918 9.25703 14.8552C9.18112 14.7925 9.09257 14.7469 8.99742 14.7217C8.90227 14.6964 8.8026 14.692 8.70559 14.7087C8.61183 14.7215 8.52174 14.7534 8.44076 14.8023C8.35978 14.8513 8.28981 14.9164 8.23493 14.9936C8.18006 15.0707 8.14143 15.1583 8.12169 15.2509C8.10195 15.3436 8.10146 15.4392 8.12011 15.5321C8.12543 15.8318 8.2029 16.1257 8.34613 16.3889C8.48935 16.6522 8.6941 16.8769 8.94273 17.0439C9.16094 17.1412 9.34187 17.3067 9.45832 17.5155C9.57477 17.7243 9.62054 17.9652 9.58881 18.2022C9.56092 18.565 9.84434 18.7836 10.2022 18.8069C10.3709 18.8281 10.5412 18.7818 10.676 18.6782C10.8109 18.5746 10.8993 18.4219 10.9225 18.2533C10.9525 18.127 10.962 17.9966 10.9504 17.8673C10.9218 17.735 10.9418 17.5968 11.0067 17.4781C11.0715 17.3593 11.177 17.2679 11.3037 17.2207C11.6653 17.0158 11.9575 16.7076 12.1429 16.3355C12.3284 15.9634 12.3986 15.5444 12.3447 15.132C12.2941 14.7041 12.1145 14.3016 11.8298 13.9784C11.545 13.6551 11.1686 13.4263 10.7507 13.3225C10.5416 13.2714 10.3183 13.2714 10.1092 13.2295C9.93743 13.1947 9.78347 13.1006 9.67391 12.9638C9.56434 12.8269 9.50612 12.6559 9.50961 12.4806C9.51848 12.3055 9.58789 12.1389 9.70568 12.0091C9.82346 11.8793 9.9824 11.7944 10.1557 11.7689C10.3377 11.748 10.5211 11.7947 10.671 11.9002C10.821 12.0057 10.9269 12.1625 10.969 12.341C10.969 12.4108 10.9691 12.4852 10.9924 12.555C11.0016 12.6456 11.0286 12.7335 11.072 12.8135C11.1155 12.8936 11.1743 12.9642 11.2452 13.0213C11.3161 13.0784 11.3976 13.1209 11.485 13.1462C11.5725 13.1716 11.664 13.1793 11.7544 13.169C12.1355 13.1225 12.3773 12.8341 12.3773 12.3224Z" fill="white"/>
</svg>
