<svg width="49" height="38" viewBox="0 0 49 38" fill="none" xmlns="http://www.w3.org/2000/svg">
<path d="M37.5034 0.910387L18.4059 20.0078C17.9032 20.5106 17.9032 21.3257 18.406 21.8284L26.8991 30.3216C27.4019 30.8243 28.217 30.8244 28.7197 30.3216L47.8172 11.2242C48.3199 10.7214 48.32 9.90623 47.8172 9.40347L39.3241 0.910328C38.8213 0.40757 38.0061 0.407629 37.5034 0.910387Z" fill="white"/>
<path d="M17.4346 22.8013C17.1861 22.5535 16.9892 22.2588 16.8552 21.9344C16.7212 21.61 16.6527 21.2623 16.6539 20.9113C16.6515 20.5622 16.7194 20.2162 16.8535 19.8938C16.9876 19.5715 17.1853 19.2794 17.4346 19.035L27.583 8.88651L23.6524 4.94214C23.4045 4.69364 23.1099 4.49672 22.7855 4.36273C22.4611 4.22874 22.1133 4.16034 21.7624 4.1615C21.4132 4.1591 21.0672 4.22696 20.7449 4.36108C20.4225 4.49519 20.1304 4.6928 19.8861 4.94214L0.780642 24.0339C0.531302 24.2783 0.333627 24.5704 0.199512 24.8927C0.0653966 25.2151 -0.0023425 25.5611 6.18295e-05 25.9103C-0.0010992 26.2612 0.0671928 26.609 0.201184 26.9334C0.335175 27.2578 0.532136 27.5524 0.780642 27.8002L9.25819 36.2779C9.50605 36.5264 9.80081 36.7233 10.1252 36.8573C10.4496 36.9913 10.7972 37.0597 11.1482 37.0585C11.4972 37.0602 11.8431 36.9919 12.1653 36.8579C12.4876 36.7238 12.7796 36.5266 13.0245 36.2779L21.9678 27.3346L17.4346 22.8013Z" fill="white"/>
</svg>
