<svg width="19" height="19" viewBox="0 0 19 19" fill="none" xmlns="http://www.w3.org/2000/svg">
<path fill-rule="evenodd" clip-rule="evenodd" d="M9.63629 0.0908813C14.6976 0.0908813 18.7999 4.19322 18.7999 9.25452C18.7999 14.3158 14.6976 18.4182 9.63629 18.4182C4.575 18.4182 0.472656 14.3158 0.472656 9.25452C0.472656 4.19322 4.575 0.0908813 9.63629 0.0908813Z" fill="#F0B90B"/>
<path d="M9.62173 3.97119L10.9271 5.30802L7.64009 8.59504L6.33472 7.28966L9.62173 3.97119Z" fill="white" stroke="white" stroke-width="0.25"/>
<path d="M11.6034 5.95288L12.9088 7.28971L7.64009 12.5584L6.33472 11.253L11.6034 5.95288Z" fill="white" stroke="white" stroke-width="0.25"/>
<path d="M5.65804 7.93451L6.96305 9.27097L5.65804 10.576L4.35303 9.27097L5.65804 7.93451Z" fill="white" stroke="white" stroke-width="0.25"/>
<path d="M13.5851 7.93451L14.8904 9.27133L9.62178 14.54L8.31641 13.2346L13.5851 7.93451Z" fill="white" stroke="white" stroke-width="0.25"/>
</svg>
