<svg width="36" height="36" viewBox="0 0 36 36" fill="none" xmlns="http://www.w3.org/2000/svg">
<path d="M21.5813 0H33.5911C34.1929 0.188911 34.7911 0.419801 35.1514 0.965544C35.3832 1.37387 35.5854 1.79826 35.7566 2.23545V18.6567C35.7414 18.6749 35.7284 18.6949 35.7181 18.7162C35.2878 20.217 34.4132 20.8747 32.8425 20.8747C29.3068 20.8747 25.77 20.8747 22.232 20.8747C21.9296 20.8802 21.6276 20.8485 21.3329 20.7802C20.112 20.4724 19.3668 19.4543 19.3633 18.1145C19.3633 14.8493 19.3633 11.5842 19.3633 8.31909C19.3633 6.46846 19.3633 4.61783 19.3633 2.7672C19.3394 2.21635 19.4898 1.67198 19.7931 1.21158C20.0965 0.751171 20.5374 0.398198 21.053 0.202905C21.228 0.115446 21.4063 0.0559737 21.5813 0Z" fill="white"/>
<path d="M14.1787 0C14.6375 0.180327 15.0779 0.404074 15.4941 0.668187C15.7915 0.906091 16.0282 1.21127 16.1845 1.55858C16.3408 1.90588 16.4123 2.28536 16.3932 2.66574C16.3932 4.86621 16.3932 7.06668 16.3932 9.26714C16.4024 9.61847 16.3398 9.96798 16.2094 10.2943C16.0789 10.6207 15.8833 10.917 15.6345 11.1652C15.3856 11.4133 15.0888 11.6082 14.7621 11.7378C14.4354 11.8674 14.0858 11.929 13.7345 11.9189C10.0472 11.9329 6.35875 11.9329 2.66915 11.9189C2.31231 11.9279 1.95743 11.8634 1.62663 11.7292C1.29583 11.5951 0.996197 11.3942 0.746426 11.1392C0.496655 10.8842 0.302102 10.5804 0.174869 10.2469C0.0476349 9.91341 -0.00953718 9.55726 0.00691171 9.20067C0.00691171 7.05968 0.00691171 4.91869 0.00691171 2.77769C0.00691171 1.36086 0.706583 0.444292 2.10592 0.055975C2.13598 0.0406195 2.16415 0.0218353 2.18988 0H14.1787Z" fill="white"/>
<path d="M35.7566 33.5177C35.6937 33.7137 35.6447 33.9201 35.5642 34.109C35.3929 34.5923 35.0742 35.0096 34.653 35.302C34.2319 35.5945 33.7295 35.7474 33.2168 35.7392C29.4491 35.7672 25.6779 35.7602 21.9067 35.7392C21.2333 35.7337 20.5895 35.462 20.1156 34.9836C19.6418 34.5052 19.3764 33.8588 19.3774 33.1854C19.34 30.9161 19.34 28.6469 19.3774 26.3776C19.4053 24.8733 20.5528 23.8308 22.0921 23.8238C24.7228 23.8238 27.3396 23.8238 29.9808 23.8238C30.9709 23.8238 31.9609 23.8238 32.9475 23.8238C34.4028 23.8238 35.3333 24.5445 35.7076 25.9473C35.7183 25.9803 35.7349 26.0112 35.7566 26.0383V33.5177Z" fill="white"/>
<path d="M0.00341578 25.3036C0.00341578 22.7568 0.00341578 20.21 0.00341578 17.6632C0.00341578 15.991 1.1019 14.882 2.77761 14.882C6.39491 14.882 10.0099 14.882 13.6225 14.882C13.9906 14.8617 14.3588 14.9194 14.7031 15.0511C15.0474 15.1829 15.3601 15.3858 15.6206 15.6467C15.8811 15.9075 16.0836 16.2204 16.215 16.5649C16.3463 16.9093 16.4034 17.2776 16.3827 17.6457C16.3827 22.751 16.3827 27.8574 16.3827 32.965C16.3827 34.6407 15.2772 35.7427 13.605 35.7427H2.76012C2.3939 35.7633 2.02742 35.7066 1.68456 35.5762C1.34171 35.4459 1.03014 35.2448 0.770112 34.9861C0.510084 34.7274 0.30744 34.4169 0.175344 34.0747C0.0432489 33.7325 -0.015332 33.3663 0.00341578 33C0.00108355 30.4345 0.00108355 27.8691 0.00341578 25.3036Z" fill="white"/>
</svg>
