<svg width="12" height="23" viewBox="0 0 12 23" fill="none" xmlns="http://www.w3.org/2000/svg">
<path d="M5.34046 22.9995C5.12013 22.8695 4.91106 22.721 4.7154 22.5554C3.24795 21.0771 1.78739 19.5917 0.333759 18.0994C0.237436 18.0214 0.158121 17.924 0.101007 17.8133C0.0438921 17.7025 0.0101358 17.581 0.00191708 17.4563C-0.00630168 17.3317 0.0111992 17.2067 0.0532705 17.0893C0.0953419 16.9718 0.161162 16.8646 0.246387 16.7743C0.331612 16.684 0.43436 16.6126 0.548285 16.5648C0.66221 16.517 0.784744 16.4937 0.908045 16.4964C1.03135 16.4991 1.15271 16.5277 1.26448 16.5805C1.37624 16.6334 1.47599 16.7091 1.55726 16.8031C2.51318 17.7713 3.46809 18.7426 4.42204 19.7168L4.62948 19.9148L4.62948 1.01071C4.60745 0.80016 4.65794 0.588337 4.7724 0.411165C4.88685 0.233993 5.05827 0.102362 5.25758 0.0385007C5.38504 -0.000532431 5.51945 -0.0100282 5.65104 0.0106627C5.78263 0.0313536 5.90796 0.0817199 6.01775 0.158058C6.12753 0.234396 6.21901 0.334732 6.28536 0.451677C6.35171 0.568621 6.39125 0.699136 6.40108 0.833644C6.40108 0.914662 6.40108 0.998701 6.40108 1.07972L6.40108 19.9118C6.48996 19.8278 6.55209 19.7708 6.60838 19.7138C7.56232 18.7416 8.51631 17.7703 9.47026 16.8001C9.58351 16.6754 9.72921 16.5856 9.89063 16.541C10.0521 16.4964 10.2227 16.4989 10.3828 16.5481C10.5379 16.5901 10.6779 16.6763 10.7861 16.7965C10.8942 16.9167 10.9661 17.0659 10.9931 17.2262C11.0249 17.381 11.0159 17.5415 10.967 17.6917C10.9181 17.8418 10.8311 17.9762 10.7146 18.0814L7.50901 21.3461C7.11202 21.7482 6.72393 22.1623 6.32398 22.5464C6.12656 22.7096 5.91768 22.8581 5.69892 22.9905L5.34046 22.9995Z" fill="url(#paint0_linear_301_535)"/>
<defs>
<linearGradient id="paint0_linear_301_535" x1="11.0117" y1="11.4997" x2="-5.67695e-05" y2="11.4997" gradientUnits="userSpaceOnUse">
<stop stop-color="#FF675A"/>
<stop offset="1" stop-color="#FF895B"/>
</linearGradient>
</defs>
</svg>
