<svg width="29" height="28" viewBox="0 0 29 28" fill="none" xmlns="http://www.w3.org/2000/svg">
<path d="M28.049 13.9862C28.049 6.26184 21.7746 0.00616947 14.0348 0.013779C6.29491 0.0213886 0.0205069 6.2894 0.0205072 14.0138C0.0205075 21.7382 6.29491 27.9938 14.0348 27.9862C21.7746 27.9786 28.049 21.7106 28.049 13.9862Z" fill="#627EEA"/>
<path d="M14.4722 3.51648V11.2684L21.0423 14.2157L14.4722 3.51648Z" fill="white" fill-opacity="0.6"/>
<path d="M14.4721 3.51648L7.90576 14.2157L14.4721 11.2874V3.51648Z" fill="white"/>
<path d="M14.4722 19.2216V24.4896L21.0462 15.4159L14.4722 19.2216Z" fill="white" fill-opacity="0.6"/>
<path d="M14.4721 24.4897V19.218L7.90576 15.4199L14.4721 24.4897Z" fill="white"/>
<path d="M14.4722 18.014L21.0423 14.2159L14.4722 11.2686V18.014Z" fill="white" fill-opacity="0.2"/>
<path d="M7.90576 14.2159L14.4721 18.014V11.2686L7.90576 14.2159Z" fill="white" fill-opacity="0.6"/>
</svg>
