<svg width="33" height="33" viewBox="0 0 33 33" fill="none" xmlns="http://www.w3.org/2000/svg">
<path d="M33 16.5001C32.9999 13.3464 32.096 10.2588 30.3954 7.60292C28.6948 4.94703 26.2686 2.83416 23.4043 1.51452C20.5399 0.19488 17.3574 -0.276248 14.2336 0.156939C11.1098 0.590127 8.17553 1.90948 5.77837 3.95875C3.3812 6.00802 1.62155 8.70135 0.707785 11.7198C-0.205982 14.7382 -0.235585 17.9553 0.622504 20.99C1.48059 24.0247 3.19044 26.75 5.5495 28.843C7.90856 30.936 10.818 32.3091 13.9333 32.7997V21.2692H9.73379V16.5001H13.9236V12.8628C13.9236 8.72925 16.3851 6.44369 20.1545 6.44369C21.3919 6.46085 22.6264 6.56869 23.848 6.76636V10.8266H21.7678C19.7193 10.8266 19.0789 12.1001 19.0789 13.403V16.5001H23.6549L22.9216 21.2692H19.0764V32.7997C22.9577 32.1851 26.4923 30.2059 29.0446 27.2181C31.5969 24.2302 32.9995 20.4297 33 16.5001Z" fill="#20519E"/>
</svg>
