<svg width="36" height="36" viewBox="0 0 36 36" fill="none" xmlns="http://www.w3.org/2000/svg">
<path d="M35.2298 36H0.77784C0.77784 35.9812 0.755166 35.9549 0.73638 35.9474C0.157796 35.6507 -0.0901254 35.2226 0.0301 34.7269C0.150325 34.2312 0.548631 33.9758 1.21738 33.9758H2.14527V12.2504C3.01457 12.4792 3.92531 12.5023 4.80511 12.3178C5.6849 12.1333 6.50961 11.7463 7.21361 11.1876C9.63691 12.8663 12.0377 12.8625 14.4384 11.1876L14.5586 11.2664C15.5412 12.0242 16.7458 12.4379 17.9869 12.4441C19.2279 12.4502 20.4365 12.0482 21.4265 11.3002C21.6069 11.1763 21.7009 11.2251 21.8474 11.3265C22.6388 11.9204 23.5739 12.2933 24.5569 12.4068C25.54 12.5203 26.5355 12.3704 27.4415 11.9725C27.928 11.7477 28.4022 11.497 28.8617 11.2214C29.5643 11.7673 30.3833 12.1441 31.255 12.3225C32.1268 12.501 33.0279 12.4763 33.8886 12.2504V33.9645C34.1742 33.9645 34.4297 33.9871 34.6852 33.9645C34.9511 33.9206 35.2242 33.9657 35.4619 34.0926C35.6996 34.2196 35.8888 34.4214 36.0001 34.6668V35.2301C35.8388 35.5671 35.5669 35.8387 35.2298 36ZM19.0745 31.7037C19.1572 31.685 19.2512 31.6699 19.3376 31.6474C20.1438 31.4597 20.9359 31.2163 21.7083 30.9188C23.7221 29.9837 25.1498 28.489 25.6195 26.2583C25.8022 25.3362 25.7999 24.387 25.6129 23.4658C25.4258 22.5446 25.0577 21.6696 24.5298 20.8917C22.9931 18.4544 20.9042 16.5541 18.6124 14.8567C18.4319 14.7095 18.2049 14.6317 17.972 14.6372C17.7392 14.6427 17.5159 14.7312 17.3426 14.8867C16.6288 15.435 15.9149 15.9908 15.2386 16.5842C13.6319 17.9206 12.2693 19.5254 11.2112 21.3273C10.084 23.3628 9.82105 25.4884 10.8355 27.6215C11.9062 29.8748 13.841 31.0428 16.208 31.5685C16.4447 31.6211 16.6814 31.6587 16.9106 31.7C16.9857 32.5825 17.3614 33.0332 17.9926 33.0294C18.6237 33.0257 18.9881 32.5938 19.0821 31.7037H19.0745Z" fill="white" fill-opacity="0.5"/>
<path d="M36 6.33549V7.18048C35.9774 7.25558 35.9511 7.33445 35.9323 7.41332C35.8159 8.10673 35.4901 8.74795 34.9985 9.25079C34.5069 9.75363 33.873 10.094 33.1822 10.2262C32.5122 10.4044 31.8035 10.3724 31.1523 10.1346C30.5011 9.8968 29.9389 9.46466 29.5416 8.89673C29.2319 8.4066 28.9713 7.88707 28.7638 7.34572C28.6285 8.18131 28.2006 8.94168 27.5565 9.49126C26.9124 10.0408 26.0941 10.3439 25.2473 10.3463C23.4814 10.3877 22.1252 9.24974 21.5917 7.25183C21.1333 9.17088 19.9687 10.3163 18.0038 10.3238C16.0388 10.3313 14.8477 9.19717 14.3856 7.23305C13.9573 9.41874 12.3156 10.2863 10.9443 10.3388C10.0447 10.3849 9.16142 10.0853 8.47576 9.50136C7.76591 8.90629 7.31044 8.06263 7.20225 7.14292C7.15717 7.33821 7.13087 7.4396 7.10833 7.541C6.94375 8.29064 6.54134 8.96714 5.96122 9.46989C5.38109 9.97263 4.65413 10.2748 3.88842 10.3313C3.1478 10.3907 2.40687 10.2207 1.76628 9.84441C1.12569 9.46815 0.616595 8.90387 0.30804 8.22825C-0.214189 7.10161 -0.0151394 6.00126 0.514604 4.95348C1.20966 3.57522 1.97234 2.23076 2.6749 0.852497C2.79092 0.585347 2.98771 0.361252 3.23773 0.211709C3.48774 0.0621674 3.77839 -0.00530341 4.06875 0.0187811C12.1088 0.033803 20.1476 0.033803 28.1852 0.0187811C29.5302 0.0187811 30.8791 0.0187811 32.2279 0.0187811C32.4642 0.000323793 32.7003 0.0568002 32.9026 0.180181C33.1049 0.303561 33.2633 0.487567 33.355 0.706034C33.881 1.76508 34.4332 2.8091 34.9404 3.87565C35.3236 4.67557 35.6506 5.51304 36 6.33549Z" fill="white" fill-opacity="0.5"/>
<path d="M19.0594 25.5335C19.0594 25.0152 19.0594 24.5007 19.0594 23.9862C19.0715 23.8628 19.1215 23.7461 19.2023 23.652C19.578 23.2389 19.9536 22.8408 20.3105 22.4277C20.4144 22.3282 20.4971 22.2086 20.5536 22.0763C20.61 21.944 20.6391 21.8017 20.6391 21.6578C20.6391 21.514 20.61 21.3716 20.5536 21.2393C20.4971 21.107 20.4144 20.9875 20.3105 20.888C20.2051 20.7895 20.0807 20.7138 19.9447 20.6657C19.8087 20.6175 19.6643 20.598 19.5204 20.6082C19.3765 20.6184 19.2361 20.6582 19.1084 20.7251C18.9806 20.792 18.868 20.8845 18.7776 20.9969C18.5296 21.2598 18.2892 21.5301 18.0262 21.8268C17.7707 21.5489 17.5265 21.2823 17.2748 21.0232C17.1844 20.9096 17.0717 20.8158 16.9435 20.7478C16.8153 20.6797 16.6745 20.6388 16.5298 20.6276C16.3851 20.6165 16.2395 20.6352 16.1024 20.6828C15.9652 20.7304 15.8394 20.8057 15.7327 20.9041C15.626 21.0024 15.5406 21.1218 15.4821 21.2546C15.4236 21.3874 15.3931 21.5308 15.3926 21.6759C15.3921 21.821 15.4215 21.9647 15.479 22.0979C15.5365 22.2311 15.621 22.3511 15.727 22.4502C16.0764 22.8258 16.4446 23.2239 16.7828 23.6257C16.8826 23.7472 16.9416 23.897 16.9517 24.0538C16.9743 24.5458 16.9517 25.0378 16.9517 25.6311L16.5197 25.2105C15.8585 24.5683 15.2198 24.482 14.7501 24.9777C14.2805 25.4734 14.3744 26.1043 15.0356 26.7127C15.4935 27.1993 15.9763 27.6619 16.4821 28.0985C16.9893 28.5003 17.0044 28.981 16.9255 29.5256C15.1634 29.3528 12.7927 28.0234 12.417 25.6987C12.2465 24.6988 12.3977 23.6705 12.8491 22.7619C13.6225 21.2987 14.646 19.9819 15.8734 18.8713C16.5459 18.2253 17.2673 17.6245 17.9774 16.9935C19.3879 18.0713 20.6711 19.306 21.8021 20.6739C22.4296 21.4026 22.937 22.2266 23.3049 23.115C24.0902 25.1805 23.5754 27.246 21.6555 28.5566C20.8876 29.0815 20.0077 29.4197 19.0858 29.5443C19.0031 28.981 19.0256 28.5041 19.529 28.0985C20.0926 27.6478 20.581 27.0995 21.0995 26.5963C21.618 26.0931 21.6893 25.4358 21.2573 24.9814C20.8252 24.527 20.1564 24.5646 19.6154 25.0941C19.4539 25.2556 19.3112 25.4396 19.1572 25.6124L19.0594 25.5335Z" fill="white" fill-opacity="0.5"/>
</svg>
