<svg width="33" height="33" viewBox="0 0 33 33" fill="none" xmlns="http://www.w3.org/2000/svg">
<path d="M16.5 33C25.6127 33 33 25.6127 33 16.5C33 7.3873 25.6127 0 16.5 0C7.3873 0 0 7.3873 0 16.5C0 25.6127 7.3873 33 16.5 33Z" fill="#006699"/>
<g clip-path="url(#clip0_301_603)">
<path d="M11.8285 7.91091C11.8285 9.00973 11.0185 9.90047 9.68414 9.90047C8.42712 9.90047 7.62063 9.00973 7.62063 7.91091C7.61547 6.7863 8.45291 5.9265 9.73917 5.9265C11.0254 5.9265 11.8027 6.7863 11.8285 7.91091ZM7.72037 24.2677V11.4705H11.6978V24.2677H7.72037Z" fill="white"/>
<path d="M14.079 15.5562C14.079 13.9604 14.0257 12.6329 13.9741 11.4739H17.4288L17.6111 13.2537H17.6902C18.206 12.4162 19.4957 11.1902 21.6452 11.1902C24.2624 11.1902 26.2245 12.9442 26.2245 16.7118V24.278H22.2436V17.1744C22.2436 15.527 21.6676 14.4007 20.2283 14.4007C19.1295 14.4007 18.476 15.1607 18.1871 15.8933C18.0853 16.2143 18.0411 16.5508 18.0564 16.8872V24.2677H14.079V15.5562Z" fill="white"/>
</g>
<defs>
<clipPath id="clip0_301_603">
<rect width="18.606" height="18.3446" fill="white" transform="translate(7.61523 5.92307)"/>
</clipPath>
</defs>
</svg>
