<svg width="441" height="386" viewBox="0 0 441 386" fill="none" xmlns="http://www.w3.org/2000/svg">
<g clip-path="url(#clip0_350_481)">
<mask id="mask0_350_481" style="mask-type:luminance" maskUnits="userSpaceOnUse" x="0" y="0" width="441" height="386">
<path d="M441 0H0V386H441V0Z" fill="white"/>
</mask>
<g mask="url(#mask0_350_481)">
<path d="M240.529 372.335C240.175 372.351 239.826 372.259 239.527 372.07C239.228 371.88 238.994 371.604 238.858 371.278C238.721 370.952 238.689 370.592 238.764 370.247C238.839 369.902 239.019 369.588 239.278 369.348L239.397 368.878C239.381 368.841 239.365 368.803 239.35 368.766C238.994 367.926 238.397 367.209 237.635 366.707C236.873 366.204 235.979 365.938 235.066 365.942C234.153 365.945 233.262 366.218 232.503 366.726C231.745 367.234 231.154 367.955 230.804 368.797C229.406 372.16 227.627 375.529 227.189 379.085C226.996 380.657 227.077 382.25 227.429 383.794C224.147 376.64 222.442 368.864 222.431 360.994C222.43 359.019 222.54 357.046 222.76 355.083C222.942 353.474 223.194 351.877 223.516 350.291C225.276 341.685 229.053 333.619 234.539 326.755C237.194 325.307 239.341 323.082 240.691 320.378C241.18 319.406 241.526 318.368 241.717 317.297C241.418 317.337 240.588 312.779 240.814 312.5C240.397 311.867 239.649 311.553 239.194 310.935C236.927 307.864 233.803 308.4 232.172 312.573C228.689 314.33 228.655 317.243 230.793 320.044C232.153 321.827 232.339 324.238 233.532 326.146C233.41 326.303 233.282 326.456 233.159 326.613C230.915 329.495 228.96 332.591 227.32 335.854C227.719 332.198 227.243 328.499 225.932 325.062C224.603 321.859 222.112 319.162 219.919 316.393C217.284 313.067 211.881 314.519 211.417 318.735C211.412 318.776 211.408 318.816 211.403 318.857C211.729 319.041 212.048 319.236 212.36 319.442C212.752 319.704 213.056 320.077 213.232 320.515C213.407 320.952 213.447 321.432 213.345 321.891C213.243 322.351 213.004 322.77 212.66 323.092C212.316 323.414 211.883 323.625 211.417 323.696L211.369 323.704C211.485 324.877 211.69 326.039 211.983 327.182C209.169 338.054 215.244 342.014 223.919 342.192C224.11 342.29 224.297 342.388 224.488 342.481C222.841 347.145 221.808 352.003 221.415 356.932C221.192 359.841 221.205 362.763 221.454 365.669L221.439 365.566C220.811 362.334 219.085 359.418 216.554 357.31C212.794 354.225 207.483 353.089 203.427 350.608C202.996 350.332 202.495 350.184 201.982 350.183C201.47 350.182 200.968 350.327 200.536 350.601C200.103 350.876 199.759 351.268 199.542 351.732C199.325 352.195 199.246 352.711 199.313 353.219C199.319 353.255 199.324 353.291 199.33 353.327C199.935 353.573 200.523 353.856 201.093 354.176C201.418 354.359 201.737 354.554 202.049 354.76C202.441 355.022 202.745 355.396 202.921 355.833C203.096 356.27 203.136 356.75 203.034 357.21C202.932 357.67 202.693 358.088 202.349 358.41C202.005 358.732 201.572 358.943 201.106 359.015L201.058 359.022C201.024 359.027 200.994 359.032 200.96 359.037C201.993 361.501 203.443 363.77 205.246 365.742C207.006 375.234 214.563 376.134 222.647 373.37H222.652C223.539 377.221 224.824 380.969 226.487 384.554H240.185C240.235 384.402 240.279 384.245 240.323 384.093C239.055 384.173 237.782 384.097 236.532 383.868C237.549 382.622 238.565 381.366 239.582 380.12C239.604 380.097 239.625 380.072 239.645 380.046C240.161 379.409 240.681 378.776 241.197 378.138C241.225 376.183 241 374.233 240.529 372.335Z" fill="#778AD1"/>
<path d="M220.233 155.935C204.799 155.935 189.71 151.362 176.877 142.795C164.043 134.228 154.041 122.051 148.134 107.804C142.227 93.5574 140.682 77.8808 143.693 62.7566C146.704 47.6325 154.137 33.74 165.051 22.8361C175.965 11.9322 189.87 4.50654 205.009 1.49815C220.147 -1.51023 235.838 0.033782 250.098 5.93494C264.358 11.8361 276.546 21.8294 285.121 34.651C293.696 47.4726 298.273 62.5468 298.273 77.9673C298.25 98.6383 290.02 118.456 275.39 133.073C260.76 147.689 240.924 155.911 220.233 155.935ZM220.233 1.22787C205.042 1.22787 190.191 5.72855 177.559 14.1608C164.928 22.593 155.083 34.5781 149.269 48.6004C143.456 62.6227 141.934 78.0524 144.898 92.9384C147.862 107.824 155.178 121.498 165.92 132.23C176.662 142.962 190.348 150.271 205.248 153.232C220.148 156.193 235.592 154.673 249.628 148.865C263.663 143.057 275.659 133.221 284.1 120.601C292.54 107.982 297.044 93.1449 297.044 77.9673C297.021 57.6218 288.922 38.1162 274.522 23.7297C260.122 9.34326 240.598 1.25086 220.233 1.22787Z" fill="white"/>
<path d="M228.795 106.208H212.204C211.389 106.208 210.608 105.884 210.032 105.308C209.456 104.733 209.132 103.952 209.132 103.138C209.132 102.324 209.456 101.543 210.032 100.967C210.608 100.392 211.389 100.068 212.204 100.068H228.795C229.61 100.068 230.392 100.392 230.968 100.967C231.544 101.543 231.868 102.324 231.868 103.138C231.868 103.952 231.544 104.733 230.968 105.308C230.392 105.884 229.61 106.208 228.795 106.208Z" fill="#778AD1"/>
<path d="M232.607 195.298H208.393C207.204 195.298 206.063 194.826 205.223 193.986C204.382 193.145 203.909 192.006 203.909 190.818C203.909 189.63 204.382 188.49 205.223 187.65C206.063 186.81 207.204 186.338 208.393 186.338H232.607C233.797 186.338 234.937 186.81 235.778 187.65C236.619 188.49 237.092 189.63 237.092 190.818C237.092 192.006 236.619 193.145 235.778 193.986C234.937 194.826 233.797 195.298 232.607 195.298Z" fill="#FF885B"/>
<path d="M301.436 176.519H139.564C138.122 176.518 136.739 175.944 135.719 174.926C134.699 173.907 134.126 172.525 134.124 171.084V122.871C134.126 121.43 134.699 120.048 135.719 119.029C136.739 118.01 138.122 117.437 139.564 117.436H301.436C302.878 117.437 304.261 118.01 305.281 119.029C306.3 120.048 306.874 121.43 306.876 122.871V171.084C306.874 172.525 306.3 173.907 305.281 174.926C304.261 175.944 302.878 176.518 301.436 176.519Z" fill="#778AD1"/>
<path d="M285.707 172.854H143.234C141.792 172.852 140.409 172.279 139.389 171.26C138.369 170.242 137.796 168.86 137.794 167.419V126.541C137.796 125.1 138.369 123.718 139.389 122.699C140.409 121.68 141.792 121.107 143.234 121.105H297.766C299.208 121.107 300.591 121.68 301.611 122.699C302.631 123.718 303.204 125.1 303.206 126.541V155.372C303.201 160.007 301.356 164.451 298.075 167.728C294.795 171.005 290.347 172.849 285.707 172.854Z" fill="white"/>
<path d="M236.563 135.643H171.503C171.131 135.643 170.774 135.496 170.511 135.233C170.247 134.97 170.1 134.613 170.1 134.242C170.1 133.87 170.247 133.513 170.511 133.25C170.774 132.988 171.131 132.84 171.503 132.84H236.563C236.935 132.84 237.292 132.988 237.555 133.25C237.818 133.513 237.966 133.87 237.966 134.242C237.966 134.613 237.818 134.97 237.555 135.233C237.292 135.496 236.935 135.643 236.563 135.643Z" fill="#7AF4EC"/>
<path d="M269.497 141.376H171.503C171.131 141.376 170.774 141.228 170.511 140.965C170.247 140.702 170.1 140.346 170.1 139.974C170.1 139.602 170.247 139.246 170.511 138.983C170.774 138.72 171.131 138.572 171.503 138.572H269.497C269.869 138.572 270.226 138.72 270.489 138.983C270.752 139.246 270.9 139.602 270.9 139.974C270.9 140.346 270.752 140.702 270.489 140.965C270.226 141.228 269.869 141.376 269.497 141.376Z" fill="#778AD1"/>
<path d="M269.497 147.956H171.503C171.318 147.956 171.135 147.92 170.965 147.85C170.794 147.78 170.639 147.676 170.509 147.546C170.378 147.416 170.274 147.261 170.204 147.091C170.133 146.921 170.097 146.738 170.097 146.554C170.097 146.37 170.133 146.187 170.204 146.017C170.274 145.847 170.378 145.692 170.509 145.562C170.639 145.432 170.794 145.328 170.965 145.258C171.135 145.188 171.318 145.152 171.503 145.152H269.497C269.869 145.153 270.225 145.301 270.487 145.564C270.75 145.827 270.897 146.183 270.897 146.554C270.897 146.925 270.75 147.281 270.487 147.544C270.225 147.807 269.869 147.955 269.497 147.956Z" fill="#778AD1"/>
<path d="M269.497 154.538H171.503C171.318 154.538 171.135 154.502 170.965 154.432C170.794 154.362 170.639 154.258 170.509 154.128C170.378 153.998 170.274 153.843 170.204 153.673C170.133 153.503 170.097 153.32 170.097 153.136C170.097 152.952 170.133 152.769 170.204 152.599C170.274 152.429 170.378 152.274 170.509 152.144C170.639 152.014 170.794 151.911 170.965 151.84C171.135 151.77 171.318 151.734 171.503 151.734H269.497C269.869 151.735 270.225 151.883 270.487 152.146C270.75 152.409 270.897 152.765 270.897 153.136C270.897 153.507 270.75 153.863 270.487 154.126C270.225 154.389 269.869 154.537 269.497 154.538Z" fill="#778AD1"/>
<path d="M269.497 161.118H171.503C171.318 161.118 171.135 161.082 170.965 161.012C170.794 160.942 170.639 160.839 170.509 160.708C170.378 160.578 170.274 160.424 170.204 160.253C170.133 160.083 170.097 159.901 170.097 159.716C170.097 159.532 170.133 159.349 170.204 159.179C170.274 159.009 170.378 158.854 170.509 158.724C170.639 158.594 170.794 158.491 170.965 158.42C171.135 158.35 171.318 158.314 171.503 158.314H269.497C269.869 158.315 270.225 158.463 270.487 158.726C270.75 158.989 270.897 159.345 270.897 159.716C270.897 160.087 270.75 160.444 270.487 160.706C270.225 160.969 269.869 161.117 269.497 161.118Z" fill="#778AD1"/>
<path d="M355.598 378.072L349.022 378.071L345.894 352.73L355.599 352.731L355.598 378.072Z" fill="#A0616A"/>
<path d="M355.829 384.925L335.607 384.924V384.669C335.608 382.584 336.437 380.583 337.913 379.109C339.389 377.634 341.391 376.806 343.478 376.806H343.479L347.173 374.006L354.064 376.806H355.83L355.829 384.925Z" fill="#2F2E41"/>
<path d="M409.359 369.658L403.467 372.574L389.403 351.255L398.1 346.951L409.359 369.658Z" fill="#A0616A"/>
<path d="M412.612 375.697L394.492 384.666L394.379 384.437C393.452 382.568 393.306 380.408 393.974 378.432C394.641 376.456 396.067 374.826 397.937 373.9L400.003 369.753L407.423 369.205L409.005 368.422L412.612 375.697Z" fill="#2F2E41"/>
<path d="M336.117 241.861C336.117 241.861 328.631 252.287 334.035 270.298C339.438 288.309 336.404 304.412 337.921 307.641C339.438 310.87 342.491 313.937 339.968 316.385C337.445 318.833 336.117 320.823 338.109 321.487C340.102 322.15 346.744 368.599 346.744 368.599L358.034 369.262C358.034 369.262 362.125 347.686 357.755 330.273C357.755 330.273 358.714 317.633 356.714 313.92C354.714 310.207 355.106 313.556 355.242 308.895C355.317 305.525 355.809 302.176 356.706 298.926C357.37 296.272 357.755 269.521 357.755 269.521L368.746 305.02C369.187 306.243 369.353 307.549 369.231 308.843C368.959 310.672 368.957 313.404 369.29 314.36C369.623 315.316 369.994 315.517 369.809 317.408C369.623 319.298 391.745 359.141 391.745 359.141L402.736 351.774L391.907 316.842C390.832 315.652 389.937 314.31 389.25 312.861C387.922 310.207 387.87 310.06 388.56 308.143C389.25 306.225 389.25 302.49 389.25 301.371C389.25 300.253 389.94 249.494 381.293 242.028C372.646 234.562 336.117 241.861 336.117 241.861Z" fill="#2F2E41"/>
<path d="M376.72 161.105L374.47 154.706L368.325 148.567L356.99 147.215L349.612 152.062L342.778 158.792L332.685 242.496C332.685 242.496 380.358 260.859 386.605 245.448L376.72 161.105Z" fill="#CCCCCC"/>
<path d="M380.585 161.106L373.963 154.49C373.963 154.49 370.8 196.772 372.148 199.745C373.495 202.719 375.082 201.96 373.367 203.568C371.652 205.175 369.808 203.58 371.652 206.526C372.738 208.178 373.271 210.132 373.174 212.106C373.174 212.106 382.712 272.092 388.243 272.092C393.773 272.092 397.236 270.474 397.041 268.827C396.846 267.18 393.583 263.08 394.6 262.06C395.617 261.041 398.123 261.811 395.641 259.891C393.159 257.972 391.93 258.585 392.544 256.13C393.159 253.674 388.461 221.84 388.461 221.84L388.003 168.667L380.585 161.106Z" fill="#3F3D56"/>
<path d="M349.611 152.062L341.036 153.275L330.841 157.163C330.841 157.163 335.497 209.641 334.525 211.399C333.553 213.156 331.826 212.058 333.304 213.835C334.782 215.611 336.112 214.823 334.525 216.445C332.938 218.067 330.268 216.013 331.91 218.882C333.553 221.751 325.637 261.251 327.768 263.37C329.9 265.489 335.392 264.17 335.394 262.606C335.226 260.919 334.588 259.314 333.553 257.972C333.256 257.631 333.092 257.195 333.092 256.744C333.092 256.292 333.256 255.856 333.553 255.516C334.424 254.679 335.022 253.6 335.269 252.418C335.396 251.218 336.335 249.744 336.787 248.64C337.24 247.535 348.634 172.765 348.634 172.765L349.611 152.062Z" fill="#3F3D56"/>
<path d="M313.021 193.383L316.889 191.365C312.06 187.014 300.078 179.894 300.078 179.894L279.427 165.985C279.125 165.274 278.641 164.655 278.023 164.19C277.405 163.726 276.676 163.432 275.908 163.339C275.14 163.246 274.362 163.356 273.65 163.659C272.939 163.962 272.32 164.446 271.856 165.064C271.392 165.682 271.099 166.411 271.006 167.178C270.914 167.945 271.025 168.723 271.329 169.433C271.633 170.144 272.119 170.761 272.738 171.224C273.357 171.687 274.087 171.979 274.855 172.071L297.998 192.785L313.021 193.383Z" fill="#A0616A"/>
<path d="M341.287 178.035L341.329 161.07L331.896 156.562L308.105 181.718L306.261 180.49H301.96L291.514 192.769C291.514 192.769 297.077 196.063 299.826 194.723C302.574 193.383 302.316 195.308 302.316 195.308C302.724 195.82 303.292 196.18 303.93 196.33C304.568 196.48 305.237 196.411 305.831 196.134C308.105 195.224 312.406 197.68 312.406 197.68L341.287 178.035Z" fill="#3F3D56"/>
<path d="M363.897 143.319C371.494 143.319 377.653 137.166 377.653 129.575C377.653 121.985 371.494 115.832 363.897 115.832C356.299 115.832 350.141 121.985 350.141 129.575C350.141 137.166 356.299 143.319 363.897 143.319Z" fill="#A0616A"/>
<path d="M380.502 133.064C379.204 135.603 377.461 137.889 375.356 139.815C374.752 140.501 373.981 141.02 373.117 141.323C372.683 141.464 372.214 141.449 371.79 141.28C371.366 141.111 371.015 140.799 370.797 140.398L370.542 140.05C371.28 139.825 371.975 139.481 372.602 139.032C372.913 138.806 373.166 138.509 373.339 138.166C373.512 137.823 373.601 137.443 373.598 137.059C373.575 136.675 373.405 136.315 373.122 136.053C372.839 135.792 372.466 135.651 372.081 135.659C371.222 135.761 370.454 136.763 369.684 136.377C369.062 136.061 369.151 135.157 369.329 134.474C370.287 130.91 369.886 125.386 368.508 125.193C367.138 124.914 365.833 124.381 364.661 123.62C363.487 122.857 362.176 122.331 360.801 122.069C360.702 122.056 360.601 122.048 360.494 122.04C360.455 121.305 360.327 120.578 360.113 119.874C359.963 120.617 359.735 121.343 359.432 122.038C358.241 122.2 357.038 122.261 355.836 122.219C354.556 122.071 350.875 125.052 350.848 124.642C350.809 123.907 350.681 123.18 350.467 122.475C350.317 123.219 350.089 123.944 349.786 124.64C349.772 124.668 349.765 124.692 349.752 124.72C349.36 123.767 349.248 122.701 349.258 123.497C348.436 118.433 350.066 115.384 354.226 112.381C355.057 111.718 356.043 111.278 357.091 111.1C357.614 111.016 358.15 111.069 358.647 111.252C359.145 111.436 359.586 111.744 359.929 112.148C361.527 111.303 363.321 110.901 365.126 110.983C366.931 111.065 368.682 111.627 370.196 112.612C373.188 114.615 375.549 115.948 375.151 119.529C377.987 119.802 380.383 122.078 381.279 124.775C382.168 127.477 381.706 130.492 380.502 133.064Z" fill="#2F2E41"/>
<path d="M398.061 204.676L388.192 203.264C384.854 208.84 383.668 223.681 383.668 223.681L374.01 246.616C373.37 247.05 372.856 247.645 372.52 248.341C372.183 249.036 372.036 249.808 372.093 250.579C372.15 251.349 372.409 252.091 372.844 252.729C373.28 253.368 373.876 253.881 374.572 254.216C375.269 254.551 376.042 254.697 376.813 254.639C377.584 254.581 378.326 254.322 378.964 253.886C379.603 253.45 380.116 252.854 380.45 252.158C380.785 251.462 380.93 250.69 380.872 249.919L396.73 223.224L398.061 204.676Z" fill="#A0616A"/>
<path d="M375.338 170.487L379.52 164.732L387.999 168.669L395.052 195.849C395.052 195.849 400.202 199.198 399.104 201.56C398.005 203.922 397.421 205.828 398.557 207.181C399.692 208.535 403 208.634 400.536 210.841C398.072 213.048 400.181 218.814 400.181 218.814L397.82 224.079L383.073 223.465L375.338 170.487Z" fill="#3F3D56"/>
<path d="M34.2508 254.784C35.1817 254.055 35.7908 252.991 35.9486 251.819C36.1064 250.648 35.8004 249.461 35.0957 248.511C34.9494 248.321 34.7876 248.142 34.6118 247.978L40.9092 233.45L34.6548 227.664L28.1819 248.497C27.5572 249.278 27.2089 250.243 27.1911 251.243C27.1734 252.242 27.4873 253.219 28.0838 254.021C28.4276 254.475 28.8574 254.856 29.3487 255.143C29.84 255.431 30.3831 255.618 30.947 255.696C31.5109 255.774 32.0846 255.74 32.6354 255.596C33.1861 255.452 33.7031 255.201 34.1568 254.857C34.1885 254.834 34.2198 254.809 34.2508 254.784Z" fill="#FFB6B6"/>
<path d="M70.8355 160.54C70.8355 160.54 66.174 151.686 55.3603 161.248C44.5466 170.809 31.7682 218.667 32.0164 220.466C32.2645 222.265 34.9076 221.553 31.5645 224.144C28.2214 226.734 26.3729 224.407 28.2214 226.734C30.0698 229.062 34.2034 231.527 30.5434 231.874C26.8834 232.22 40.3006 237.987 40.3006 237.987C40.3006 237.987 42.411 237.481 43.0585 232.616C43.4221 229.883 42.1899 228.332 44.3591 227.876C46.5283 227.421 44.495 222.48 44.8073 221.702C45.1196 220.924 62.4404 186.966 62.4404 186.966L70.8355 160.54Z" fill="#B9E2C2"/>
<path d="M92.1239 376.763L99.9537 376.762L103.679 346.586L92.1221 346.587L92.1239 376.763Z" fill="#FFB6B6"/>
<path d="M91.8471 384.925L115.928 384.924V384.62C115.927 382.136 114.94 379.755 113.182 377.999C111.425 376.243 109.041 375.256 106.555 375.256L102.156 371.922L93.9488 375.256H91.8467L91.8471 384.925Z" fill="#2F2E41"/>
<path d="M37.2363 362.373L43.6418 366.872L64.0637 344.329L54.6085 337.688L37.2363 362.373Z" fill="#FFB6B6"/>
<path d="M32.3115 368.89L52.0102 382.727L52.1854 382.478C53.6151 380.447 54.1785 377.931 53.7517 375.484C53.3249 373.038 51.9428 370.861 49.9095 369.432L48.2304 364.177L39.5973 362.188L37.8778 360.98L32.3115 368.89Z" fill="#2F2E41"/>
<path d="M60.9231 226.637L60.2724 228.026C55.9955 237.155 54.902 247.359 56.564 257.3C56.6876 257.688 56.664 258.108 56.4978 258.48C55.467 259.688 57.0842 264.935 58.0112 267.866L58.8467 273.047C58.8467 273.047 57.4612 277.86 59.5656 277.506C61.67 277.152 58.5363 282.286 60.5436 283.572L65.7508 315.865L44.0264 351.637L52.0724 363.293L84.2567 321.894L84.659 284.515L89.4866 314.66L89.8889 362.087L104.527 360.532L109.89 314.551L104.774 250.96L96.7281 223.389L60.9231 226.637Z" fill="#2F2E41"/>
<path d="M70.9808 143.846L82.8228 144.409L88.4856 154.183C90.9968 154.935 93.3067 156.242 95.2448 158.006C97.1829 159.77 98.6998 161.946 99.6835 164.374L103.371 173.475L99.1761 226.099C99.1761 226.099 98.3353 229.282 99.8835 228.817C101.432 228.353 100.801 232.341 100.801 232.341L106.507 254.268L54.6276 249.761L57.5083 226.53C57.5083 226.53 53.5032 226.659 56.3193 223.845C59.1355 221.032 60.505 221.928 57.7997 218.602C55.0945 215.276 54.6922 212.864 54.6922 212.864L53.4853 196.385L51.4956 173.194C51.1798 169.514 51.7846 165.813 53.2555 162.424C54.7264 159.036 57.0173 156.066 59.9221 153.781L70.9808 143.846Z" fill="#B9E2C2"/>
<path d="M77.1213 141.133C85.4153 141.133 92.139 134.415 92.139 126.129C92.139 117.842 85.4153 111.125 77.1213 111.125C68.8272 111.125 62.1035 117.842 62.1035 126.129C62.1035 134.415 68.8272 141.133 77.1213 141.133Z" fill="#FFB6B6"/>
<path d="M71.3186 139.902C75.6281 139.761 76.0196 138.624 80.3292 138.482C81.7014 138.438 83.3206 138.25 83.984 137.049C84.1771 136.599 84.2631 136.11 84.2352 135.622C84.2073 135.133 84.0663 134.657 83.8233 134.232C83.3315 133.388 82.8883 132.517 82.4957 131.623C82.2591 130.922 82.1971 130.174 82.3149 129.443C82.4327 128.712 82.7268 128.022 83.1718 127.43C83.6168 126.838 84.1993 126.364 84.8689 126.048C85.5385 125.732 86.2752 125.583 87.0151 125.615C88.3266 125.672 89.5583 126.288 90.8661 126.4C92.6597 126.555 96.6258 120.638 95.8 119.04C94.9962 117.484 93.3785 116.311 93.1243 114.578C92.958 113.446 93.4261 112.32 93.4901 111.177C93.5849 109.481 89.2838 113.304 90.0715 111.799C92.0038 108.109 73.7954 103.534 70.7977 108.156C69.6773 109.884 67.6807 109.766 65.9011 110.804C64.7347 111.484 61.7894 113.83 61.1198 115.292C60.5046 116.784 60.2138 118.39 60.2669 120.003C60.24 127.504 61.3838 134.403 67.4398 138.837" fill="#2F2E41"/>
<path d="M113.952 254.139C113.066 253.355 112.522 252.257 112.434 251.078C112.347 249.899 112.723 248.733 113.483 247.827C113.641 247.645 113.813 247.477 113.998 247.323L108.58 232.446L115.169 227.043L120.386 248.225C120.962 249.042 121.253 250.026 121.211 251.025C121.169 252.023 120.797 252.98 120.153 253.745C119.783 254.177 119.331 254.532 118.824 254.79C118.316 255.047 117.763 255.202 117.195 255.246C116.628 255.29 116.057 255.222 115.516 255.045C114.975 254.869 114.474 254.588 114.041 254.218C114.011 254.192 113.981 254.166 113.952 254.139Z" fill="#FFB6B6"/>
<path d="M83.0635 157.88C83.0635 157.88 88.2457 149.32 98.4688 159.509C108.692 169.698 118.588 218.232 118.233 220.014C117.878 221.795 115.282 220.927 118.464 223.712C121.647 226.497 123.631 224.284 121.647 226.497C119.662 228.71 115.389 230.925 119.022 231.489C122.654 232.053 108.916 237.009 108.916 237.009C108.916 237.009 106.84 236.378 106.484 231.483C106.285 228.734 107.608 227.259 105.469 226.675C103.331 226.091 105.656 221.28 105.391 220.485C105.126 219.69 89.8647 184.759 89.8647 184.759L83.0635 157.88Z" fill="#B9E2C2"/>
<path d="M232.492 76.292C232.493 78.721 231.772 81.0957 230.422 83.1157C229.072 85.1357 227.152 86.7103 224.906 87.6404C222.66 88.5705 220.189 88.8143 217.804 88.3411C215.419 87.8678 213.229 86.6986 211.509 84.9815C209.789 83.2643 208.618 81.0763 208.143 78.6941C207.668 76.3118 207.911 73.8424 208.841 71.598C209.771 69.3537 211.346 67.4352 213.367 66.0852C215.388 64.7352 217.765 64.0143 220.196 64.0137C221.811 64.0115 223.41 64.3276 224.903 64.9438C226.395 65.56 227.751 66.4642 228.893 67.6047C230.035 68.7452 230.941 70.0996 231.559 71.5903C232.176 73.081 232.493 74.6787 232.492 76.292Z" fill="#FF885B"/>
<path d="M220.47 78.0714C222.846 78.0714 224.772 76.1474 224.772 73.774C224.772 71.4006 222.846 69.4766 220.47 69.4766C218.095 69.4766 216.169 71.4006 216.169 73.774C216.169 76.1474 218.095 78.0714 220.47 78.0714Z" fill="white"/>
<path d="M225.081 79.6074H215.864C215.293 79.608 214.747 79.8346 214.344 80.2375C213.94 80.6403 213.714 81.1864 213.713 81.7561C213.844 83.5965 214.132 85.4223 214.573 87.2138C216.422 88.1655 218.482 88.6326 220.56 88.5714C222.639 88.5102 224.668 87.9227 226.457 86.8639C226.852 85.1848 227.111 83.4767 227.232 81.7561C227.231 81.1864 227.004 80.6403 226.601 80.2375C226.198 79.8346 225.651 79.608 225.081 79.6074Z" fill="white"/>
<path d="M3.23652e-06 385.27C-0.000283158 385.366 0.0184401 385.461 0.0550893 385.55C0.0917385 385.638 0.145587 385.719 0.21355 385.787C0.281513 385.855 0.362248 385.909 0.451099 385.945C0.539951 385.982 0.635172 386 0.731284 386H440.269C440.463 386 440.649 385.923 440.786 385.786C440.923 385.649 441 385.463 441 385.27C441 385.076 440.923 384.89 440.786 384.753C440.649 384.616 440.463 384.539 440.269 384.539H0.731284C0.635173 384.539 0.53995 384.557 0.451099 384.594C0.362249 384.631 0.281521 384.684 0.213559 384.752C0.145597 384.82 0.0917396 384.901 0.0550893 384.99C0.018439 385.078 -0.000279895 385.174 3.23652e-06 385.27Z" fill="#CCCCCC"/>
</g>
</g>
<defs>
<clipPath id="clip0_350_481">
<rect width="441" height="386" fill="white"/>
</clipPath>
</defs>
</svg>
