<svg width="40" height="40" viewBox="0 0 40 40" fill="none" xmlns="http://www.w3.org/2000/svg">
<path d="M30.8932 20.1788C30.8932 21.6406 30.8932 23.1024 30.8932 24.5642C30.9149 25.1712 30.7633 25.7718 30.456 26.2957C30.1486 26.8196 29.6982 27.2452 29.1578 27.5225C26.8322 28.8238 24.498 30.1251 22.1725 31.3961C21.6657 31.7013 21.0851 31.8626 20.4934 31.8626C19.9017 31.8626 19.3214 31.7013 18.8145 31.3961C16.502 30.0948 14.1808 28.8325 11.8727 27.5485C11.3169 27.2665 10.8543 26.8299 10.541 26.2911C10.2277 25.7524 10.0769 25.1346 10.1067 24.5122V15.8368C10.0831 15.2123 10.2395 14.5941 10.5571 14.0558C10.8748 13.5175 11.3405 13.0818 11.8987 12.8005C14.1809 11.5339 16.463 10.2759 18.7321 8.99199C19.2592 8.66776 19.8658 8.49609 20.4847 8.49609C21.1036 8.49609 21.7104 8.66776 22.2375 8.99199C24.524 10.2716 26.8193 11.5339 29.1101 12.8091C29.6677 13.0904 30.1325 13.5264 30.4487 14.0649C30.765 14.6034 30.9193 15.2216 30.8932 15.8455C30.8889 17.2856 30.8932 18.7474 30.8932 20.1788ZM16.6018 20.7948C16.4499 20.6039 16.3674 20.5042 16.2893 20.4001C15.5083 19.3634 14.7231 18.331 13.9465 17.29C13.8747 17.1499 13.7552 17.0402 13.6096 16.9805C13.464 16.9209 13.3019 16.9152 13.1525 16.9646C13.0071 17.0186 12.8846 17.1209 12.8057 17.2543C12.7267 17.3878 12.696 17.5443 12.7186 17.6977C12.7186 19.346 12.7186 20.9987 12.7186 22.647C12.7186 23.1241 12.9747 23.4147 13.3652 23.4147C13.7556 23.4147 14.0116 23.1241 14.016 22.6513C14.016 21.7447 14.016 20.8382 14.016 19.9316C14.016 19.8362 14.016 19.7407 14.0507 19.5759C14.9445 20.7601 15.786 21.8792 16.6321 23.0027C16.8403 23.2846 17.066 23.5015 17.4434 23.3844C17.8209 23.2673 17.9164 22.9506 17.912 22.5819C17.912 20.9726 17.912 19.3634 17.912 17.7541C17.912 17.2205 17.6559 16.9126 17.2394 16.9256C16.8229 16.9386 16.6148 17.2292 16.6104 17.7541L16.6018 20.7948ZM20.5065 18.2226H21.4696C21.795 18.2226 22.1205 18.2226 22.4416 18.2226C22.5268 18.2231 22.6113 18.2068 22.6903 18.1746C22.7692 18.1424 22.841 18.0949 22.9015 18.0348C22.962 17.9747 23.01 17.9033 23.0428 17.8246C23.0755 17.7459 23.0923 17.6615 23.0923 17.5762C23.0941 17.4911 23.0787 17.4064 23.0468 17.3274C23.0149 17.2485 22.9672 17.1768 22.9068 17.1167C22.8463 17.0567 22.7743 17.0096 22.6951 16.9782C22.6159 16.9468 22.531 16.9319 22.4458 16.9343C21.5781 16.9343 20.7103 16.9343 19.8426 16.9343C19.757 16.9292 19.6713 16.9424 19.5911 16.9728C19.5109 17.0033 19.4381 17.0504 19.3774 17.1111C19.3167 17.1717 19.2697 17.2445 19.2393 17.3247C19.2088 17.4049 19.1954 17.4906 19.2005 17.5762C19.2005 19.3113 19.2005 21.0464 19.2005 22.7814C19.1981 22.8666 19.2132 22.9513 19.2446 23.0305C19.2759 23.1097 19.3231 23.1817 19.3831 23.2422C19.4432 23.3026 19.5149 23.3502 19.5939 23.3821C19.6729 23.414 19.7574 23.4296 19.8426 23.4278C19.9346 23.4284 20.0258 23.4094 20.11 23.3722C20.1941 23.335 20.2696 23.2804 20.3311 23.2119C20.3926 23.1434 20.4389 23.0627 20.4669 22.9751C20.4949 22.8874 20.5038 22.7948 20.4934 22.7034C20.4934 22.0874 20.4934 21.4715 20.4934 20.8338C21.1616 20.8338 21.769 20.8338 22.3721 20.8338C22.5447 20.8367 22.7115 20.7709 22.8356 20.6509C22.9597 20.5309 23.0308 20.3666 23.0337 20.194C23.0365 20.0215 22.9709 19.8548 22.8508 19.7308C22.7308 19.6067 22.5665 19.5354 22.3939 19.5325C22.229 19.5325 22.0683 19.5325 21.9035 19.5325H20.5065V18.2226ZM25.7129 18.2226V18.704C25.7129 20.0053 25.7129 21.3543 25.7129 22.6773C25.7014 22.7681 25.7089 22.8602 25.7349 22.9479C25.761 23.0356 25.805 23.1169 25.8642 23.1866C25.9233 23.2564 25.9963 23.3131 26.0785 23.3531C26.1608 23.3931 26.2505 23.4156 26.3419 23.4191C26.7367 23.4191 27.0058 23.1415 27.0058 22.673C27.0058 21.671 27.0058 20.6733 27.0058 19.6713V18.2182C27.2574 18.2182 27.4701 18.2182 27.6827 18.2182C27.8469 18.2116 28.0023 18.1422 28.1169 18.0244C28.2316 17.9065 28.2966 17.7493 28.2987 17.5849C28.3022 17.5002 28.2885 17.4156 28.2585 17.3362C28.2284 17.2569 28.1827 17.1844 28.1239 17.1232C28.0652 17.0621 27.9946 17.0134 27.9165 16.9802C27.8385 16.9469 27.7544 16.9299 27.6695 16.9299C26.8018 16.9299 25.924 16.9299 25.036 16.9299C24.8711 16.9299 24.7129 16.9951 24.5958 17.1113C24.4788 17.2275 24.4125 17.3853 24.4113 17.5502C24.4078 17.6352 24.4213 17.7201 24.4509 17.7999C24.4805 17.8797 24.5256 17.9528 24.5838 18.0149C24.6419 18.0771 24.7118 18.1271 24.7895 18.162C24.8671 18.1969 24.951 18.216 25.036 18.2182C25.2269 18.2312 25.4309 18.2182 25.6955 18.2182L25.7129 18.2226Z" fill="white"/>
<path d="M11.3911 5.18353V5.84719H29.5743L29.6091 5.17919L29.9822 5.37005C31.2013 6.06842 32.4292 6.75377 33.6397 7.46948C33.9821 7.69148 34.3813 7.80961 34.7894 7.80961C35.1974 7.80961 35.5967 7.69148 35.9391 7.46948C37.2407 6.70172 38.5857 5.95564 39.9871 5.15317V5.99901C39.9871 6.75377 39.9871 7.51286 39.9871 8.27195C39.9991 8.45184 39.9562 8.63113 39.864 8.78607C39.7718 8.941 39.6347 9.06426 39.4708 9.13949C38.2343 9.82918 37.0065 10.5449 35.77 11.2389C35.6613 11.2842 35.5695 11.3627 35.508 11.4632C35.4464 11.5637 35.4182 11.681 35.4273 11.7985C35.4273 16.9372 35.4273 22.0802 35.4273 27.2276C35.4185 27.3383 35.4446 27.449 35.5023 27.544C35.5599 27.639 35.6459 27.7134 35.7482 27.7568C36.9862 28.4508 38.2199 29.1535 39.4492 29.8649C40.1737 30.2986 40.1781 30.8148 39.4492 31.2269C38.0695 32.0207 36.6768 32.8015 35.3014 33.6083C35.1449 33.7133 34.9605 33.7693 34.772 33.7693C34.5835 33.7693 34.3994 33.7133 34.2428 33.6083C32.8675 32.8015 31.4791 32.0207 30.0951 31.2269C29.3922 30.8192 29.3879 30.29 30.0951 29.8909C31.3359 29.1737 32.581 28.4653 33.8306 27.7654C33.9328 27.7202 34.0181 27.6439 34.0742 27.5472C34.1303 27.4506 34.1544 27.3387 34.143 27.2276C34.143 22.0831 34.143 16.9401 34.143 11.7985C34.1528 11.6809 34.1248 11.5633 34.0632 11.4627C34.0016 11.3621 33.9095 11.2837 33.8003 11.2389C32.5638 10.5449 31.3402 9.82918 30.0993 9.13949C29.9343 9.06613 29.7962 8.94312 29.7044 8.78761C29.6126 8.6321 29.5719 8.45184 29.5875 8.27195C29.5875 7.92494 29.5875 7.57359 29.5875 7.20055H11.3955C11.378 7.49959 11.378 7.7994 11.3955 8.09845C11.4336 8.33936 11.3869 8.58604 11.2635 8.79644C11.1401 9.00684 10.9476 9.16794 10.7186 9.25227C9.51685 9.90292 8.34532 10.6056 7.1522 11.2693C7.04954 11.313 6.96362 11.3883 6.90666 11.4843C6.84971 11.5802 6.82471 11.6918 6.83548 11.8028C6.83548 16.9415 6.83548 22.0845 6.83548 27.2319C6.82238 27.3427 6.84527 27.4548 6.90073 27.5517C6.9562 27.6485 7.04128 27.725 7.14351 27.7698C8.38436 28.4595 9.61231 29.1665 10.8445 29.8736C11.5864 30.3073 11.5907 30.8322 10.8445 31.2573C9.47348 32.0467 8.09814 32.8188 6.73147 33.617C6.57535 33.7231 6.39084 33.7798 6.20206 33.7798C6.01328 33.7798 5.82898 33.7231 5.67286 33.617C4.29752 32.8102 2.90913 32.0294 1.5251 31.2356C0.800551 30.8018 0.800551 30.2943 1.5251 29.8779C2.75728 29.1752 3.98512 28.4681 5.22163 27.7741C5.32515 27.7316 5.41265 27.6577 5.47182 27.5627C5.53099 27.4677 5.55874 27.3566 5.55126 27.2449C5.55126 22.0889 5.55126 16.9328 5.55126 11.7768C5.56174 11.6725 5.5394 11.5675 5.48729 11.4765C5.43517 11.3855 5.35591 11.313 5.26061 11.2693C4.00674 10.5709 2.77018 9.84653 1.52065 9.14816C1.34973 9.06918 1.20749 8.93919 1.11348 8.77607C1.01947 8.61294 0.978323 8.42471 0.995697 8.23725C0.995697 7.23525 0.995697 6.23325 0.995697 5.16184L1.40795 5.37439C2.62711 6.07275 3.85057 6.76678 5.06105 7.47816C5.39331 7.69065 5.77946 7.80358 6.17388 7.80358C6.56831 7.80358 6.95446 7.69065 7.28672 7.47816C8.50443 6.77546 9.72501 6.07854 10.9485 5.3874C11.0917 5.33535 11.2262 5.27462 11.3911 5.18353Z" fill="white"/>
<path d="M29.5958 34.4801H11.4041C11.4041 34.8705 11.4041 35.2479 11.4041 35.621C11.4176 35.7777 11.3834 35.9349 11.306 36.0719C11.2286 36.2089 11.1115 36.3194 10.9702 36.3887C9.52399 37.2158 8.06908 38.0472 6.60551 38.8829C6.48072 38.9634 6.33542 39.0062 6.1869 39.0062C6.03839 39.0062 5.89288 38.9634 5.76808 38.8829C4.32765 38.0544 2.87421 37.2432 1.42944 36.3931C1.31724 36.3264 1.22059 36.2366 1.14578 36.1296C1.07097 36.0227 1.01973 35.901 0.99558 35.7728C0.952194 34.6927 0.973972 33.6039 0.973972 32.4718C1.1345 32.5542 1.2517 32.6106 1.36017 32.6713C2.57065 33.3654 3.78964 34.0377 4.98276 34.7534C5.3337 34.9868 5.74575 35.1112 6.1672 35.1112C6.58865 35.1112 7.00092 34.9868 7.35185 34.7534C8.65344 33.99 9.9766 33.2526 11.3433 32.4718L11.3822 33.1572H29.5395L29.5742 32.4675L30.3422 32.9012C31.4225 33.5172 32.5116 34.1201 33.5745 34.7578C33.9206 34.987 34.3265 35.1093 34.7416 35.1093C35.1567 35.1093 35.5626 34.987 35.9087 34.7578C37.1061 34.0507 38.321 33.374 39.5315 32.6844L39.9262 32.4718C39.9262 32.6106 39.948 32.7104 39.948 32.8101C39.948 33.7471 39.948 34.6797 39.948 35.6123C39.9634 35.7613 39.935 35.9116 39.8664 36.0449C39.7978 36.1781 39.692 36.2886 39.5618 36.3627C38.0823 37.2042 36.6116 38.0631 35.1191 38.8829C35.001 38.9354 34.873 38.9625 34.7437 38.9625C34.6144 38.9625 34.4865 38.9354 34.3683 38.8829C32.8758 38.0616 31.3979 37.2158 29.9344 36.3453C29.7345 36.1803 29.603 35.9468 29.5655 35.6904C29.5448 35.2868 29.5549 34.8822 29.5958 34.4801Z" fill="white"/>
<path d="M11.5168 3.27495C11.3303 3.50484 11.2219 3.74775 11.0353 3.85619C9.55584 4.72373 8.06767 5.59126 6.56216 6.40674C6.44401 6.45924 6.31627 6.48636 6.18698 6.48636C6.05769 6.48636 5.92973 6.45924 5.81158 6.40674C4.33211 5.59126 2.87003 4.74542 1.40791 3.89957C1.28987 3.85134 1.18877 3.76907 1.11768 3.66323C1.04658 3.5574 1.00879 3.4328 1.00879 3.30531C1.00879 3.17782 1.04658 3.05322 1.11768 2.94739C1.18877 2.84155 1.28987 2.75928 1.40791 2.71105C2.88305 1.84351 4.35807 1.00201 5.85056 0.182187C5.96871 0.129693 6.09667 0.10257 6.22596 0.10257C6.35525 0.10257 6.48299 0.129693 6.60114 0.182187C8.09363 1.00201 9.56897 1.85219 11.0398 2.71105C11.2133 2.80214 11.3259 3.04071 11.5168 3.27495Z" fill="white"/>
<path d="M34.7851 0C34.933 0.0541056 35.0779 0.116374 35.219 0.186519C36.655 1.002 38.0868 1.81315 39.5142 2.6373C40.1389 2.99733 40.1389 3.55689 39.5142 3.93861C38.0868 4.76276 36.6506 5.56957 35.2232 6.39373C35.0879 6.48272 34.9296 6.53015 34.7677 6.53015C34.6058 6.53015 34.4473 6.48272 34.312 6.39373C32.8976 5.57391 31.4745 4.7671 30.0558 3.95162C29.405 3.57858 29.4094 3.02769 30.0558 2.65032C31.4745 1.83483 32.8977 1.02803 34.3165 0.216884C34.4683 0.117117 34.6246 0.0694027 34.7851 0Z" fill="white"/>
<path d="M14.0332 1.34903H16.5798V3.89524H14.0332V1.34903Z" fill="white"/>
<path d="M26.3159 37.6943H23.769V35.1481H26.3159V37.6943Z" fill="white"/>
</svg>
