<svg width="40" height="40" viewBox="0 0 40 40" fill="none" xmlns="http://www.w3.org/2000/svg">
<path d="M30.8933 20.1788C30.8933 21.6406 30.8933 23.1024 30.8933 24.5642C30.915 25.1712 30.7634 25.7718 30.4561 26.2957C30.1487 26.8196 29.6984 27.2452 29.1579 27.5225C26.8324 28.8238 24.4981 30.1251 22.1726 31.3961C21.6658 31.7013 21.0852 31.8626 20.4935 31.8626C19.9018 31.8626 19.3215 31.7013 18.8146 31.3961C16.5021 30.0948 14.181 28.8325 11.8728 27.5485C11.317 27.2665 10.8544 26.8299 10.5411 26.2911C10.2278 25.7524 10.077 25.1346 10.1069 24.5122V15.8368C10.0832 15.2123 10.2396 14.5941 10.5572 14.0558C10.8749 13.5175 11.3406 13.0818 11.8989 12.8005C14.181 11.5339 16.4631 10.2759 18.7322 8.99199C19.2594 8.66776 19.8659 8.49609 20.4848 8.49609C21.1037 8.49609 21.7105 8.66776 22.2377 8.99199C24.5241 10.2716 26.8194 11.5339 29.1102 12.8091C29.6679 13.0904 30.1326 13.5264 30.4489 14.0649C30.7651 14.6034 30.9194 15.2216 30.8933 15.8455C30.889 17.2856 30.8933 18.7474 30.8933 20.1788ZM16.6019 20.7948C16.45 20.6039 16.3675 20.5042 16.2894 20.4001C15.5085 19.3634 14.7232 18.331 13.9466 17.29C13.8748 17.1499 13.7554 17.0402 13.6098 16.9805C13.4641 16.9209 13.302 16.9152 13.1526 16.9646C13.0072 17.0186 12.8848 17.1209 12.8058 17.2543C12.7268 17.3878 12.6961 17.5443 12.7187 17.6977C12.7187 19.346 12.7187 20.9987 12.7187 22.647C12.7187 23.1241 12.9748 23.4147 13.3653 23.4147C13.7558 23.4147 14.0117 23.1241 14.0161 22.6513C14.0161 21.7447 14.0161 20.8382 14.0161 19.9316C14.0161 19.8362 14.0161 19.7407 14.0508 19.5759C14.9446 20.7601 15.7861 21.8792 16.6322 23.0027C16.8404 23.2846 17.0661 23.5015 17.4436 23.3844C17.821 23.2673 17.9165 22.9506 17.9122 22.5819C17.9122 20.9726 17.9122 19.3634 17.9122 17.7541C17.9122 17.2205 17.6561 16.9126 17.2395 16.9256C16.823 16.9386 16.6149 17.2292 16.6106 17.7541L16.6019 20.7948ZM20.5067 18.2226H21.4697C21.7951 18.2226 22.1206 18.2226 22.4417 18.2226C22.5269 18.2231 22.6114 18.2068 22.6904 18.1746C22.7693 18.1424 22.8411 18.0949 22.9016 18.0348C22.9621 17.9747 23.0101 17.9033 23.0429 17.8246C23.0757 17.7459 23.0925 17.6615 23.0925 17.5762C23.0943 17.4911 23.0788 17.4064 23.0469 17.3274C23.015 17.2485 22.9673 17.1768 22.9069 17.1167C22.8464 17.0567 22.7745 17.0096 22.6953 16.9782C22.616 16.9468 22.5311 16.9319 22.4459 16.9343C21.5782 16.9343 20.7105 16.9343 19.8427 16.9343C19.7571 16.9292 19.6715 16.9424 19.5913 16.9728C19.5111 17.0033 19.4382 17.0504 19.3775 17.1111C19.3168 17.1717 19.2699 17.2445 19.2394 17.3247C19.2089 17.4049 19.1956 17.4906 19.2006 17.5762C19.2006 19.3113 19.2006 21.0464 19.2006 22.7814C19.1982 22.8666 19.2133 22.9513 19.2447 23.0305C19.2761 23.1097 19.3232 23.1817 19.3832 23.2422C19.4433 23.3026 19.515 23.3502 19.594 23.3821C19.673 23.414 19.7575 23.4296 19.8427 23.4278C19.9348 23.4284 20.0259 23.4094 20.1101 23.3722C20.1943 23.335 20.2697 23.2804 20.3312 23.2119C20.3928 23.1434 20.439 23.0627 20.467 22.9751C20.495 22.8874 20.504 22.7948 20.4935 22.7034C20.4935 22.0874 20.4935 21.4715 20.4935 20.8338C21.1617 20.8338 21.7691 20.8338 22.3722 20.8338C22.5448 20.8367 22.7116 20.7709 22.8357 20.6509C22.9598 20.5309 23.0309 20.3666 23.0338 20.194C23.0367 20.0215 22.971 19.8548 22.851 19.7308C22.7309 19.6067 22.5666 19.5354 22.394 19.5325C22.2291 19.5325 22.0684 19.5325 21.9036 19.5325H20.5067V18.2226ZM25.713 18.2226V18.704C25.713 20.0053 25.713 21.3543 25.713 22.6773C25.7015 22.7681 25.709 22.8602 25.7351 22.9479C25.7611 23.0356 25.8051 23.1169 25.8643 23.1866C25.9234 23.2564 25.9964 23.3131 26.0787 23.3531C26.1609 23.3931 26.2506 23.4156 26.342 23.4191C26.7368 23.4191 27.0059 23.1415 27.0059 22.673C27.0059 21.671 27.0059 20.6733 27.0059 19.6713V18.2182C27.2576 18.2182 27.4702 18.2182 27.6828 18.2182C27.847 18.2116 28.0024 18.1422 28.1171 18.0244C28.2317 17.9065 28.2967 17.7493 28.2988 17.5849C28.3023 17.5002 28.2886 17.4156 28.2586 17.3362C28.2285 17.2569 28.1828 17.1844 28.1241 17.1232C28.0653 17.0621 27.9947 17.0134 27.9167 16.9802C27.8386 16.9469 27.7545 16.9299 27.6696 16.9299C26.8019 16.9299 25.9241 16.9299 25.0362 16.9299C24.8712 16.9299 24.713 16.9951 24.5959 17.1113C24.4789 17.2275 24.4126 17.3853 24.4114 17.5502C24.4079 17.6352 24.4214 17.7201 24.451 17.7999C24.4807 17.8797 24.5257 17.9528 24.5839 18.0149C24.642 18.0771 24.7119 18.1271 24.7896 18.162C24.8672 18.1969 24.9511 18.216 25.0362 18.2182C25.2271 18.2312 25.431 18.2182 25.6956 18.2182L25.713 18.2226Z" fill="white" fill-opacity="0.5"/>
<path d="M11.391 5.18353V5.84719H29.5743L29.609 5.17919L29.9821 5.37005C31.2012 6.06842 32.4292 6.75377 33.6396 7.46948C33.982 7.69148 34.3813 7.80961 34.7893 7.80961C35.1974 7.80961 35.5967 7.69148 35.939 7.46948C37.2406 6.70172 38.5856 5.95564 39.987 5.15317V5.99901C39.987 6.75377 39.987 7.51286 39.987 8.27195C39.9991 8.45184 39.9561 8.63113 39.8639 8.78607C39.7717 8.941 39.6346 9.06426 39.4707 9.13949C38.2342 9.82918 37.0065 10.5449 35.77 11.2389C35.6612 11.2842 35.5695 11.3627 35.5079 11.4632C35.4464 11.5637 35.4181 11.681 35.4272 11.7985C35.4272 16.9372 35.4272 22.0802 35.4272 27.2276C35.4184 27.3383 35.4446 27.449 35.5022 27.544C35.5598 27.639 35.6459 27.7134 35.7482 27.7568C36.9861 28.4508 38.2198 29.1535 39.4491 29.8649C40.1737 30.2986 40.178 30.8148 39.4491 31.2269C38.0694 32.0207 36.6767 32.8015 35.3014 33.6083C35.1448 33.7133 34.9605 33.7693 34.772 33.7693C34.5835 33.7693 34.3993 33.7133 34.2428 33.6083C32.8674 32.8015 31.479 32.0207 30.095 31.2269C29.3921 30.8192 29.3878 30.29 30.095 29.8909C31.3359 29.1737 32.581 28.4653 33.8305 27.7654C33.9327 27.7202 34.018 27.6439 34.0741 27.5472C34.1302 27.4506 34.1544 27.3387 34.143 27.2276C34.143 22.0831 34.143 16.9401 34.143 11.7985C34.1527 11.6809 34.1247 11.5633 34.0631 11.4627C34.0015 11.3621 33.9094 11.2837 33.8002 11.2389C32.5637 10.5449 31.3401 9.82918 30.0992 9.13949C29.9342 9.06613 29.7961 8.94312 29.7044 8.78761C29.6126 8.6321 29.5718 8.45184 29.5874 8.27195C29.5874 7.92494 29.5874 7.57359 29.5874 7.20055H11.3954C11.378 7.49959 11.378 7.7994 11.3954 8.09845C11.4336 8.33936 11.3869 8.58604 11.2635 8.79644C11.14 9.00684 10.9475 9.16794 10.7186 9.25227C9.51678 9.90292 8.34526 10.6056 7.15213 11.2693C7.04948 11.313 6.96355 11.3883 6.9066 11.4843C6.84965 11.5802 6.82465 11.6918 6.83542 11.8028C6.83542 16.9415 6.83542 22.0845 6.83542 27.2319C6.82231 27.3427 6.84521 27.4548 6.90067 27.5517C6.95614 27.6485 7.04122 27.725 7.14345 27.7698C8.3843 28.4595 9.61225 29.1665 10.8444 29.8736C11.5863 30.3073 11.5907 30.8322 10.8444 31.2573C9.47342 32.0467 8.09808 32.8188 6.73141 33.617C6.57529 33.7231 6.39078 33.7798 6.202 33.7798C6.01322 33.7798 5.82892 33.7231 5.6728 33.617C4.29746 32.8102 2.90907 32.0294 1.52504 31.2356C0.80049 30.8018 0.80049 30.2943 1.52504 29.8779C2.75722 29.1752 3.98506 28.4681 5.22157 27.7741C5.32509 27.7316 5.41259 27.6577 5.47176 27.5627C5.53093 27.4677 5.55868 27.3566 5.5512 27.2449C5.5512 22.0889 5.5512 16.9328 5.5512 11.7768C5.56168 11.6725 5.53934 11.5675 5.48723 11.4765C5.43511 11.3855 5.35585 11.313 5.26055 11.2693C4.00668 10.5709 2.77012 9.84653 1.52059 9.14816C1.34966 9.06918 1.20743 8.93919 1.11342 8.77607C1.01941 8.61294 0.978262 8.42471 0.995636 8.23725C0.995636 7.23525 0.995636 6.23325 0.995636 5.16184L1.40789 5.37439C2.62705 6.07275 3.85051 6.76678 5.06099 7.47816C5.39325 7.69065 5.7794 7.80358 6.17382 7.80358C6.56825 7.80358 6.9544 7.69065 7.28666 7.47816C8.50437 6.77546 9.72495 6.07854 10.9484 5.3874C11.0916 5.33535 11.2261 5.27462 11.391 5.18353Z" fill="white" fill-opacity="0.5"/>
<path d="M29.5958 34.4801H11.4041C11.4041 34.8705 11.4041 35.2479 11.4041 35.621C11.4176 35.7777 11.3834 35.9349 11.306 36.0719C11.2286 36.2089 11.1115 36.3194 10.9702 36.3887C9.52399 37.2158 8.06908 38.0472 6.60551 38.8829C6.48072 38.9634 6.33542 39.0062 6.1869 39.0062C6.03839 39.0062 5.89288 38.9634 5.76808 38.8829C4.32765 38.0544 2.87421 37.2432 1.42944 36.3931C1.31724 36.3264 1.22059 36.2366 1.14578 36.1296C1.07097 36.0227 1.01973 35.901 0.99558 35.7728C0.952194 34.6927 0.973972 33.6039 0.973972 32.4718C1.1345 32.5542 1.2517 32.6106 1.36017 32.6713C2.57065 33.3654 3.78964 34.0377 4.98276 34.7534C5.3337 34.9868 5.74575 35.1112 6.1672 35.1112C6.58865 35.1112 7.00092 34.9868 7.35185 34.7534C8.65344 33.99 9.9766 33.2526 11.3433 32.4718L11.3822 33.1572H29.5395L29.5742 32.4675L30.3422 32.9012C31.4225 33.5172 32.5116 34.1201 33.5745 34.7578C33.9206 34.987 34.3265 35.1093 34.7416 35.1093C35.1567 35.1093 35.5626 34.987 35.9087 34.7578C37.1061 34.0507 38.321 33.374 39.5315 32.6844L39.9262 32.4718C39.9262 32.6106 39.948 32.7104 39.948 32.8101C39.948 33.7471 39.948 34.6797 39.948 35.6123C39.9634 35.7613 39.935 35.9116 39.8664 36.0449C39.7978 36.1781 39.692 36.2886 39.5618 36.3627C38.0823 37.2042 36.6116 38.0631 35.1191 38.8829C35.001 38.9354 34.873 38.9625 34.7437 38.9625C34.6144 38.9625 34.4865 38.9354 34.3683 38.8829C32.8758 38.0616 31.3979 37.2158 29.9344 36.3453C29.7345 36.1803 29.603 35.9468 29.5655 35.6904C29.5448 35.2868 29.5549 34.8822 29.5958 34.4801Z" fill="white" fill-opacity="0.5"/>
<path d="M11.5168 3.27495C11.3302 3.50484 11.2218 3.74775 11.0353 3.85619C9.55578 4.72373 8.0676 5.59126 6.5621 6.40674C6.44395 6.45924 6.31621 6.48636 6.18692 6.48636C6.05763 6.48636 5.92967 6.45924 5.81152 6.40674C4.33205 5.59126 2.86997 4.74542 1.40785 3.89957C1.28981 3.85134 1.18871 3.76907 1.11762 3.66323C1.04652 3.5574 1.00873 3.4328 1.00873 3.30531C1.00873 3.17782 1.04652 3.05322 1.11762 2.94739C1.18871 2.84155 1.28981 2.75928 1.40785 2.71105C2.88299 1.84351 4.35801 1.00201 5.8505 0.182187C5.96865 0.129693 6.09661 0.10257 6.2259 0.10257C6.35519 0.10257 6.48293 0.129693 6.60108 0.182187C8.09357 1.00201 9.56891 1.85219 11.0397 2.71105C11.2133 2.80214 11.3259 3.04071 11.5168 3.27495Z" fill="white" fill-opacity="0.5"/>
<path d="M34.7851 0C34.933 0.0541056 35.0779 0.116374 35.219 0.186519C36.655 1.002 38.0868 1.81315 39.5142 2.6373C40.1389 2.99733 40.1389 3.55689 39.5142 3.93861C38.0868 4.76276 36.6506 5.56957 35.2232 6.39373C35.0879 6.48272 34.9296 6.53015 34.7677 6.53015C34.6058 6.53015 34.4473 6.48272 34.312 6.39373C32.8976 5.57391 31.4745 4.7671 30.0558 3.95162C29.405 3.57858 29.4094 3.02769 30.0558 2.65032C31.4745 1.83483 32.8977 1.02803 34.3165 0.216884C34.4683 0.117117 34.6246 0.0694027 34.7851 0Z" fill="white" fill-opacity="0.5"/>
<path d="M14.0333 1.34903H16.5799V3.89524H14.0333V1.34903Z" fill="white" fill-opacity="0.5"/>
<path d="M26.316 37.6943H23.7692V35.1481H26.316V37.6943Z" fill="white" fill-opacity="0.5"/>
</svg>
