<svg width="38" height="39" viewBox="0 0 38 39" fill="none" xmlns="http://www.w3.org/2000/svg">
<path d="M13.9927 0C14.2303 0.062219 14.468 0.118782 14.7056 0.186657C15.6835 0.462246 16.5501 1.04938 17.1801 1.86297C17.8101 2.67656 18.1706 3.67433 18.2093 4.71168C18.2822 6.21974 18.2639 7.73097 18.1543 9.23669C18.0395 10.3784 17.5316 11.4411 16.7216 12.2348C15.9117 13.0285 14.8525 13.5016 13.7331 13.5694C12.6023 13.6411 11.4824 13.3069 10.5664 12.6245C9.65042 11.942 8.9957 10.954 8.71495 9.8306C8.65361 9.61118 8.61642 9.3854 8.60431 9.15751C8.53587 7.41094 8.57289 5.66171 8.71495 3.9198C8.98022 1.87223 10.6161 0.435534 12.6278 0.0735321C12.6868 0.0587581 12.7442 0.037912 12.7991 0.0113128L13.9927 0Z" fill="white" fill-opacity="0.5"/>
<path d="M37.9888 39H18.4472V31.8731H15.7503C16.0512 30.8722 16.5164 29.9311 17.1263 29.0902C18.2042 27.5708 19.6988 26.4132 21.4204 25.7643C21.5026 25.7413 21.5887 25.7354 21.6732 25.7471C21.7577 25.7588 21.839 25.7877 21.9123 25.8322C23.2815 26.8538 24.932 27.4042 26.6263 27.4042C28.3207 27.4042 29.9714 26.8538 31.3406 25.8322C31.4236 25.76 31.5255 25.7145 31.6336 25.7014C31.7418 25.6883 31.8514 25.7083 31.9485 25.7587C33.6993 26.4578 35.2076 27.6735 36.2821 29.2516C37.3565 30.8297 37.9488 32.6989 37.9835 34.6221C38.0111 36.0757 37.9888 37.5237 37.9888 39Z" fill="white" fill-opacity="0.5"/>
<path d="M20.9066 16.9123C20.8402 15.8745 20.8402 14.8334 20.9066 13.7957C21.108 12.4136 21.7845 11.1506 22.8149 10.2339C23.8453 9.31726 25.1618 8.80717 26.527 8.79551C27.8649 8.77629 29.1684 9.23001 30.2174 10.0801C31.2665 10.9302 31.997 12.1247 32.2856 13.4619C32.3403 13.6843 32.3737 13.9117 32.3851 14.1407C32.4128 16.2335 32.6337 18.3376 32.2745 20.4078C32.011 21.7597 31.2902 22.9731 30.239 23.8349C29.1878 24.6966 27.8735 25.1515 26.527 25.1195C25.1628 25.0947 23.851 24.5779 22.8228 23.66C21.7945 22.7422 21.116 21.4823 20.9066 20.1024C20.7684 19.0503 20.8125 17.9756 20.7738 16.9123H20.9066Z" fill="white" fill-opacity="0.5"/>
<path d="M16.1923 38.9434C13.7385 38.9434 11.3124 39.0848 8.90288 38.9095C5.78593 38.6889 3.05583 35.7702 2.82372 32.5745C2.70214 30.8323 2.76838 29.0732 2.74627 27.3254V26.7598H0.989014L5.12283 20.5379L9.25099 26.7598H7.59303C7.54882 26.822 7.52692 26.8446 7.52692 26.8673C7.52692 28.5642 7.49376 30.261 7.52692 31.9579C7.55131 32.5706 7.80769 33.1495 8.24202 33.5718C8.67635 33.9942 9.25448 34.2268 9.85356 34.2204C11.8155 34.2204 13.7717 34.2204 15.7336 34.2204H16.1923V38.9434Z" fill="white" fill-opacity="0.5"/>
<path d="M19.9891 23.8072C19.2983 24.2315 18.6239 24.65 17.9442 25.0573C17.8441 25.1048 17.7337 25.1243 17.6239 25.1138C15.4741 25.1138 13.3297 25.1138 11.1799 25.1138C11.0992 25.1111 11.0199 25.0917 10.9467 25.0567C10.8736 25.0217 10.8081 24.9718 10.7543 24.9102C8.94162 22.1952 7.13812 19.4745 5.34384 16.7482C5.32495 16.7155 5.30841 16.6815 5.29419 16.6464C5.94338 15.7055 6.79631 14.9312 7.78652 14.3839C8.01016 14.2119 8.28604 14.1266 8.5653 14.1432C8.84456 14.1598 9.10925 14.2771 9.31198 14.4744C10.5567 15.4122 12.0728 15.8957 13.6177 15.8475C15.1626 15.7993 16.6472 15.2222 17.8338 14.2085C17.9078 14.1273 18.0062 14.0737 18.1134 14.0563C18.2205 14.0389 18.3301 14.0586 18.4251 14.1124C18.6793 14.2312 18.5853 14.4235 18.5853 14.5932C18.5853 16.1015 18.5853 17.6098 18.5853 19.1182C18.576 20.7225 19.0235 22.2949 19.8731 23.6432L19.9891 23.8355V23.8072Z" fill="white" fill-opacity="0.5"/>
</svg>
