<svg width="38" height="39" viewBox="0 0 38 39" fill="none" xmlns="http://www.w3.org/2000/svg">
<path d="M13.993 0C14.2306 0.062219 14.4683 0.118782 14.7059 0.186657C15.6838 0.462246 16.5504 1.04938 17.1804 1.86297C17.8104 2.67656 18.1709 3.67433 18.2096 4.71168C18.2825 6.21974 18.2642 7.73097 18.1546 9.23669C18.0398 10.3784 17.5319 11.4411 16.722 12.2348C15.912 13.0285 14.8528 13.5016 13.7334 13.5694C12.6026 13.6411 11.4827 13.3069 10.5667 12.6245C9.65072 11.942 8.99601 10.954 8.71525 9.8306C8.65391 9.61118 8.61673 9.3854 8.60462 9.15751C8.53617 7.41094 8.5732 5.66171 8.71525 3.9198C8.98053 1.87223 10.6164 0.435534 12.6281 0.0735321C12.6871 0.0587581 12.7445 0.037912 12.7994 0.0113128L13.993 0Z" fill="white"/>
<path d="M37.989 39H18.4474V31.8731H15.7505C16.0513 30.8722 16.5166 29.9311 17.1264 29.0902C18.2044 27.5708 19.699 26.4132 21.4206 25.7643C21.5028 25.7413 21.5889 25.7354 21.6734 25.7471C21.7579 25.7588 21.8392 25.7877 21.9125 25.8322C23.2816 26.8538 24.9321 27.4042 26.6265 27.4042C28.3208 27.4042 29.9716 26.8538 31.3408 25.8322C31.4237 25.76 31.5257 25.7145 31.6338 25.7014C31.742 25.6883 31.8516 25.7083 31.9487 25.7587C33.6995 26.4578 35.2077 27.6735 36.2822 29.2516C37.3567 30.8297 37.949 32.6989 37.9836 34.6221C38.0113 36.0757 37.989 37.5237 37.989 39Z" fill="white"/>
<path d="M20.9067 16.9123C20.8403 15.8745 20.8403 14.8334 20.9067 13.7957C21.1081 12.4136 21.7847 11.1506 22.8151 10.2339C23.8455 9.31726 25.1619 8.80717 26.5271 8.79551C27.8651 8.77629 29.1685 9.23001 30.2176 10.0801C31.2666 10.9302 31.9971 12.1247 32.2857 13.4619C32.3404 13.6843 32.3738 13.9117 32.3853 14.1407C32.4129 16.2335 32.6339 18.3376 32.2746 20.4078C32.0111 21.7597 31.2904 22.9731 30.2392 23.8349C29.1879 24.6966 27.8736 25.1515 26.5271 25.1195C25.163 25.0947 23.8511 24.5779 22.8229 23.66C21.7947 22.7422 21.1161 21.4823 20.9067 20.1024C20.7685 19.0503 20.8126 17.9756 20.7739 16.9123H20.9067Z" fill="white"/>
<path d="M16.1926 38.9434C13.7388 38.9434 11.3127 39.0848 8.90313 38.9095C5.78617 38.6889 3.05608 35.7702 2.82396 32.5745C2.70238 30.8323 2.76862 29.0732 2.74652 27.3254V26.7598H0.989258L5.12308 20.5379L9.25123 26.7598H7.59328C7.54907 26.822 7.52716 26.8446 7.52716 26.8673C7.52716 28.5642 7.49401 30.261 7.52716 31.9579C7.55156 32.5706 7.80793 33.1495 8.24227 33.5718C8.6766 33.9942 9.25472 34.2268 9.85381 34.2204C11.8157 34.2204 13.7719 34.2204 15.7338 34.2204H16.1926V38.9434Z" fill="white"/>
<path d="M19.9893 23.8072C19.2985 24.2315 18.6242 24.65 17.9444 25.0573C17.8443 25.1048 17.734 25.1243 17.6241 25.1138C15.4743 25.1138 13.3299 25.1138 11.1801 25.1138C11.0994 25.1111 11.0201 25.0917 10.947 25.0567C10.8738 25.0217 10.8083 24.9718 10.7546 24.9102C8.94187 22.1952 7.13836 19.4745 5.34409 16.7482C5.32519 16.7155 5.30866 16.6815 5.29443 16.6464C5.94362 15.7055 6.79655 14.9312 7.78676 14.3839C8.0104 14.2119 8.28629 14.1266 8.56555 14.1432C8.8448 14.1598 9.10949 14.2771 9.31222 14.4744C10.557 15.4122 12.073 15.8957 13.6179 15.8475C15.1629 15.7993 16.6474 15.2222 17.8341 14.2085C17.908 14.1273 18.0065 14.0737 18.1136 14.0563C18.2208 14.0389 18.3304 14.0586 18.4253 14.1124C18.6795 14.2312 18.5856 14.4235 18.5856 14.5932C18.5856 16.1015 18.5856 17.6098 18.5856 19.1182C18.5762 20.7225 19.0237 22.2949 19.8733 23.6432L19.9893 23.8355V23.8072Z" fill="white"/>
</svg>
