<svg width="29" height="28" viewBox="0 0 29 28" fill="none" xmlns="http://www.w3.org/2000/svg">
<path d="M14.0371 28C21.7864 28 28.0684 21.732 28.0684 14C28.0684 6.26801 21.7864 0 14.0371 0C6.28787 0 0.00585938 6.26801 0.00585938 14C0.00585938 21.732 6.28787 28 14.0371 28Z" fill="url(#paint0_linear_310_911)"/>
<path d="M7.39118 18.0533C7.5118 17.934 7.67479 17.867 7.84467 17.867H23.5565C23.6205 17.8661 23.6833 17.8843 23.7368 17.9194C23.7903 17.9544 23.832 18.0046 23.8566 18.0636C23.8812 18.1225 23.8876 18.1874 23.8748 18.25C23.8621 18.3126 23.8309 18.3699 23.7851 18.4146L20.6832 21.5096C20.562 21.6309 20.3975 21.6993 20.2259 21.6997H4.51405C4.4501 21.6996 4.38762 21.6805 4.3345 21.645C4.28138 21.6095 4.23998 21.5591 4.21553 21.5001C4.19108 21.4412 4.18467 21.3763 4.1971 21.3137C4.20953 21.2511 4.24026 21.1936 4.2854 21.1484L7.39118 18.0533Z" fill="white"/>
<path d="M7.39118 6.49052C7.51249 6.3722 7.67504 6.30542 7.84467 6.3042H23.5565C23.6205 6.30327 23.6833 6.3215 23.7368 6.35653C23.7903 6.39156 23.832 6.44178 23.8566 6.50072C23.8812 6.55965 23.8876 6.6246 23.8748 6.68717C23.8621 6.74973 23.8309 6.80706 23.7851 6.85173L20.6832 9.94679C20.562 10.0681 20.3975 10.1365 20.2259 10.1369H4.51405C4.4501 10.1367 4.38762 10.1177 4.3345 10.0822C4.28138 10.0467 4.23998 9.99624 4.21553 9.93729C4.19108 9.87833 4.18467 9.81347 4.1971 9.75088C4.20953 9.68829 4.24026 9.63077 4.2854 9.58557L7.39118 6.49052Z" fill="white"/>
<path d="M20.6832 12.2358C20.562 12.1145 20.3975 12.0461 20.2259 12.0457H4.51405C4.4501 12.0458 4.38762 12.0648 4.3345 12.1004C4.28138 12.1359 4.23998 12.1863 4.21553 12.2453C4.19108 12.3042 4.18467 12.3691 4.1971 12.4317C4.20953 12.4943 4.24026 12.5518 4.2854 12.597L7.39118 15.692C7.5118 15.8114 7.67479 15.8784 7.84467 15.8784H23.5565C23.6205 15.8793 23.6833 15.8611 23.7368 15.826C23.7903 15.791 23.832 15.7408 23.8566 15.6818C23.8812 15.6229 23.8876 15.558 23.8748 15.4954C23.8621 15.4328 23.8309 15.3755 23.7851 15.3308L20.6832 12.2358Z" fill="white"/>
<defs>
<linearGradient id="paint0_linear_310_911" x1="26.3345" y1="1.48669" x2="3.5751" y2="24.7466" gradientUnits="userSpaceOnUse">
<stop stop-color="#00FFA3"/>
<stop offset="1" stop-color="#DC1FFF"/>
</linearGradient>
</defs>
</svg>
