<svg width="29" height="28" viewBox="0 0 29 28" fill="none" xmlns="http://www.w3.org/2000/svg">
<path d="M14.0371 0C16.8123 0 19.5251 0.821085 21.8325 2.35942C24.1399 3.89776 25.9383 6.08426 27.0003 8.64243C28.0623 11.2006 28.3402 14.0155 27.7988 16.7313C27.2574 19.447 25.9211 21.9416 23.9587 23.8995C21.9964 25.8574 19.4963 27.1908 16.7745 27.731C14.0527 28.2712 11.2315 27.9939 8.6676 26.9343C6.10372 25.8747 3.91233 24.0803 2.37056 21.778C0.82878 19.4757 0.00585938 16.7689 0.00585938 14C0.00686956 10.2873 1.48549 6.72691 4.11664 4.10162C6.7478 1.47633 10.3161 0.00100793 14.0371 0Z" fill="#53AE94"/>
<path d="M15.7676 12.137V10.0533H20.5425V6.87842H7.55916V10.0533H12.3341V12.1332C8.4547 12.3119 5.53564 13.0761 5.53564 13.9963C5.53564 14.9164 8.4547 15.6807 12.3341 15.8594V22.5324H15.7866V15.8594C19.6584 15.6807 22.5698 14.9164 22.5698 13.9963C22.5698 13.0761 19.6584 12.3157 15.7866 12.137M15.7866 15.2967C15.6875 15.2967 15.1883 15.3347 14.0718 15.3347C13.1839 15.3347 12.5475 15.3081 12.3341 15.2967C8.90437 15.1446 6.34734 14.5362 6.34734 13.8366C6.34734 13.137 8.90818 12.5286 12.3341 12.3765V14.7035C12.5589 14.7035 13.2029 14.7567 14.087 14.7567C15.1502 14.7567 15.6875 14.7111 15.7866 14.7035V12.3765C19.2163 12.5286 21.7581 13.137 21.7581 13.8366C21.7581 14.5362 19.2049 15.1408 15.7866 15.2929" fill="white"/>
</svg>
