<svg width="16" height="18" viewBox="0 0 16 18" fill="none" xmlns="http://www.w3.org/2000/svg">
<path d="M3.29406 14.6811H14.1932C14.6072 14.6238 15.0259 14.7401 15.3604 15.0051C15.695 15.2702 15.9189 15.6632 15.985 16.1008C16.0423 16.5393 15.9339 16.984 15.6833 17.3378C15.4328 17.6916 15.0604 17.9257 14.6477 17.9891C14.4384 18.0036 14.2285 18.0036 14.0192 17.9891H1.98353C0.646231 17.9891 0.0177394 17.3502 0.0177394 15.9305V2.01729C-0.0448538 1.56668 0.0595932 1.10785 0.308968 0.737215C0.558342 0.366575 0.933232 0.11296 1.35504 0.0296759C1.56629 -0.0129255 1.78363 -0.00962619 1.99365 0.0393593C2.20367 0.0883448 2.40211 0.182012 2.57709 0.314697C2.75206 0.447383 2.89988 0.616322 3.01165 0.811346C3.12341 1.00637 3.19657 1.22342 3.22713 1.44939C3.24047 1.69053 3.24047 1.93229 3.22713 2.17344V14.6101L3.29406 14.6811Z" fill="url(#paint0_linear_81_22)"/>
<defs>
<linearGradient id="paint0_linear_81_22" x1="8" y1="0" x2="8" y2="18" gradientUnits="userSpaceOnUse">
<stop stop-color="#FF675A"/>
<stop offset="1" stop-color="#FF895B"/>
</linearGradient>
</defs>
</svg>
