<svg width="33" height="33" viewBox="0 0 33 33" fill="none" xmlns="http://www.w3.org/2000/svg">
<path d="M16.5 33C25.6127 33 33 25.6127 33 16.5C33 7.3873 25.6127 0 16.5 0C7.3873 0 0 7.3873 0 16.5C0 25.6127 7.3873 33 16.5 33Z" fill="#00ABF1"/>
<path d="M13.1686 26.0015C21.2352 26.0015 25.6352 19.3257 25.6352 13.5348C25.6352 13.3466 25.6352 13.1584 25.6352 12.9701C26.4924 12.3495 27.2323 11.5814 27.8205 10.7017C27.0207 11.0544 26.1731 11.2867 25.3052 11.391C26.2199 10.8429 26.9044 9.98116 27.2314 8.96615C26.372 9.47762 25.4311 9.83732 24.4496 10.0295C23.7897 9.32532 22.9158 8.85867 21.9635 8.70193C21.0113 8.5452 20.0339 8.70714 19.1831 9.16264C18.3322 9.61814 17.6556 10.3417 17.258 11.2211C16.8604 12.1005 16.7642 13.0865 16.9843 14.0261C15.2419 13.9392 13.5372 13.4866 11.9811 12.6978C10.425 11.909 9.0523 10.8017 7.95209 9.4477C7.39117 10.4122 7.21923 11.5544 7.47132 12.6413C7.72341 13.7282 8.38055 14.6781 9.30877 15.2973C8.61294 15.2757 7.93233 15.088 7.32386 14.7497V14.8059C7.32414 15.8175 7.67432 16.7978 8.315 17.5806C8.95568 18.3634 9.84746 18.9005 10.839 19.1008C10.1933 19.2763 9.51615 19.3022 8.85897 19.1766C9.1386 20.0454 9.6815 20.8058 10.4125 21.3524C11.1434 21.899 12.0263 22.2047 12.9387 22.2273C11.3864 23.4444 9.47005 24.1047 7.4974 24.1021C7.14775 24.1029 6.79836 24.0825 6.45117 24.041C8.4551 25.3279 10.787 26.011 13.1686 26.0088" fill="white"/>
</svg>
