<svg width="40" height="19" viewBox="0 0 40 19" fill="none" xmlns="http://www.w3.org/2000/svg">
<path d="M38.9999 7.002C38.8873 7.23056 38.7066 7.4178 38.483 7.53741C38.2594 7.65702 38.0042 7.70299 37.7534 7.66885C35.1127 7.66885 32.4719 7.66885 29.8312 7.66885C29.7133 7.66082 29.5955 7.68407 29.4893 7.73626C29.383 7.78846 29.2922 7.8678 29.2258 7.96637C28.7526 8.60245 28.2591 9.21801 27.7656 9.8387C27.272 10.4594 26.524 10.4799 26.0763 9.72585L24.6465 7.279C24.5855 7.17127 24.5142 7.07381 24.4074 6.90966C24.0818 8.36648 23.7715 9.74637 23.4611 11.1262C23.0066 13.1371 22.5519 15.1462 22.0974 17.1536C22.0768 17.3921 21.9671 17.6138 21.7905 17.7738C21.6138 17.9339 21.3834 18.0202 21.146 18.0154C20.9154 18.001 20.6978 17.9025 20.534 17.7382C20.3701 17.574 20.2712 17.3552 20.2556 17.1228C19.472 12.8549 18.6867 8.58022 17.8997 4.29866C17.8997 4.2371 17.8998 4.18068 17.8337 4.0114C17.7268 4.23198 17.6607 4.35508 17.6047 4.48846C16.5871 6.79168 15.5236 9.10515 14.4704 11.4032C14.3693 11.6341 14.2096 11.8341 14.0074 11.9829C13.8974 12.0493 13.7743 12.0907 13.6468 12.1045C13.5193 12.1182 13.3904 12.1038 13.2689 12.0623C13.1475 12.0209 13.0365 11.9533 12.9435 11.8643C12.8505 11.7753 12.7777 11.667 12.7303 11.5469C12.1605 10.4286 11.5957 9.31035 11.0512 8.18695C11.0135 8.07529 10.9389 7.98014 10.8397 7.91754C10.7405 7.85494 10.6229 7.82871 10.5068 7.84326C7.42341 7.84326 4.33499 7.84326 1.25162 7.84326C1.12442 7.84326 0.99722 7.84326 0.870018 7.84326C0.64432 7.82984 0.431685 7.73227 0.273388 7.56952C0.115092 7.40677 0.0225281 7.19048 0.0136438 6.96272C0.00475944 6.73496 0.0801847 6.51201 0.225315 6.33723C0.370445 6.16245 0.574884 6.04834 0.79884 6.01709C0.925835 6.00676 1.05345 6.00676 1.18044 6.01709C4.51821 6.01709 7.85595 6.01709 11.1937 6.01709C11.4406 5.99516 11.6879 6.05422 11.8988 6.18548C12.1097 6.31674 12.2728 6.51317 12.364 6.74551C12.7202 7.5047 13.117 8.2485 13.5241 9.05899L13.7225 8.65375C14.9131 6.02394 16.1003 3.39071 17.2841 0.754058C17.3397 0.584221 17.4355 0.430572 17.5631 0.306355C17.6908 0.182138 17.8464 0.0910802 18.0168 0.041035C18.1417 0.0144889 18.2708 0.0145622 18.3956 0.0412464C18.5205 0.0679306 18.6385 0.120634 18.742 0.195983C18.8454 0.271333 18.9321 0.367666 18.9965 0.47879C19.0609 0.589913 19.1016 0.713375 19.1159 0.841262C19.4771 2.76489 19.8281 4.69365 20.1843 6.61727C20.5235 8.44343 20.8627 10.2696 21.2019 12.0958C21.2309 12.2073 21.2666 12.3169 21.3087 12.4241C21.6598 10.8492 22.0007 9.34625 22.3263 7.86378C22.5909 6.69934 22.8352 5.54004 23.1099 4.3756C23.232 3.83186 23.4967 3.53434 23.9241 3.48817C24.1356 3.47016 24.3475 3.51933 24.53 3.6288C24.7125 3.73826 24.8564 3.90254 24.9417 4.0986C25.6336 5.30408 26.3409 6.50441 27.0786 7.76631C27.4653 7.25335 27.8368 6.83272 28.1726 6.36592C28.2941 6.18649 28.4597 6.042 28.6532 5.94666C28.8468 5.85133 29.0617 5.80843 29.2767 5.82217C32.1226 5.82217 34.9669 5.82217 37.8094 5.82217C38.0538 5.79192 38.3014 5.83882 38.5183 5.95642C38.7352 6.07401 38.9106 6.25651 39.0203 6.47877L38.9999 7.002Z" fill="url(#paint0_linear_81_5)"/>
<defs>
<linearGradient id="paint0_linear_81_5" x1="19.5166" y1="0.0211792" x2="19.5166" y2="18.0156" gradientUnits="userSpaceOnUse">
<stop stop-color="#FF675A"/>
<stop offset="1" stop-color="#FF895B"/>
</linearGradient>
</defs>
</svg>
