<svg width="99" height="69" viewBox="0 0 99 69" fill="none" xmlns="http://www.w3.org/2000/svg">
<path d="M79.2995 0.906678C81.6634 1.03094 84.0167 1.30885 86.3446 1.73865C91.9852 2.75382 95.6187 6.57785 96.6873 12.5314C98.0494 20.6793 98.5457 28.9484 98.168 37.2007C97.9772 42.9711 97.4047 48.7339 96.8628 54.4814C96.4506 58.6947 94.741 62.2745 91.0238 64.6712C88.7339 66.1367 86.1997 66.5565 83.6045 66.8312C73.5322 67.809 63.4133 68.2269 53.2947 68.083C43.1125 68.0372 32.9303 67.7319 22.7634 67.3961C19.4878 67.2497 16.2232 66.9158 12.9858 66.3962C7.42143 65.5871 3.62791 61.7707 2.47536 56.0308C1.45885 50.3027 0.927699 44.4989 0.887674 38.6814C0.619752 31.0346 0.948992 23.3786 1.87234 15.783C2.08194 14.0736 2.39545 12.3785 2.81116 10.7072C4.124 5.60086 8.29145 2.16609 13.8176 1.47151C23.3357 0.280789 32.8997 0.17393 42.4865 0.0136411C46.1615 0.0136411 52.4111 0.0329449 56.0849 0.126986C62.8269 0.299566 73.032 0.619616 79.2995 0.906678Z" fill="url(#paint0_linear_94_388)"/>
<path d="M36.869 19.317V48.4667L62.1796 33.8957L36.869 19.317Z" fill="white"/>
<defs>
<linearGradient id="paint0_linear_94_388" x1="0.797485" y1="34.0553" x2="98.2905" y2="34.0553" gradientUnits="userSpaceOnUse">
<stop stop-color="#FF675A"/>
<stop offset="1" stop-color="#FF895B"/>
</linearGradient>
</defs>
</svg>
